RobotoFlex-Thin.ufo
<glyph name="period" format="2">
  <advance width="427"/>
  <unicode hex="002E"/>
  <outline>
    <contour>
      <point x="160.0" y="57.21764705880667" type="curve" smooth="yes"/>
      <point x="160" y="102"/>
      <point x="179" y="137"/>
      <point x="213.16996078428002" y="137.41895424832666" type="curve" smooth="yes"/>
      <point x="246" y="137"/>
      <point x="265" y="102"/>
      <point x="265.3562614378467" y="58.20130718952" type="curve" smooth="yes"/>
      <point x="265" y="13"/>
      <point x="247" y="-22"/>
      <point x="212.18630065356666" y="-22.0" type="curve" smooth="yes"/>
      <point x="179" y="-22"/>
      <point x="160" y="14"/>
    </contour>
  </outline>
</glyph>
<glyph name="eight" format="2">
  <advance width="1257"/>
  <unicode hex="0038"/>
  <outline>
    <contour>
      <point x="129.08720821667617" y="375.96666666666664" type="curve" smooth="yes"/>
      <point x="129" y="573"/>
      <point x="276" y="695"/>
      <point x="466.5003734827405" y="745.2728291316695" type="curve"/>
      <point x="466.5003734827405" y="749.2728291316695" type="line"/>
      <point x="295" y="789"/>
      <point x="181" y="930"/>
      <point x="180.9891690009562" y="1097.0333333333333" type="curve" smooth="yes"/>
      <point x="181" y="1332"/>
      <point x="375" y="1486"/>
      <point x="627.7618113911839" y="1486.0" type="curve" smooth="yes"/>
      <point x="880" y="1486"/>
      <point x="1078" y="1329"/>
      <point x="1077.5827264239338" y="1097.0333333333333" type="curve" smooth="yes"/>
      <point x="1078" y="930"/>
      <point x="967" y="791"/>
      <point x="790.4402427638171" y="749.2728291316695" type="curve"/>
      <point x="790.4402427638171" y="745.2728291316695" type="line"/>
      <point x="991" y="707"/>
      <point x="1130" y="575"/>
      <point x="1130.468347338927" y="375.96666666666664" type="curve" smooth="yes"/>
      <point x="1130" y="116"/>
      <point x="910" y="-30"/>
      <point x="627.7618113911839" y="-30.0" type="curve" smooth="yes"/>
      <point x="346" y="-30"/>
      <point x="129" y="116"/>
    </contour>
    <contour>
      <point x="186.45714285714286" y="376.91699346404664" type="curve" smooth="yes"/>
      <point x="186" y="169"/>
      <point x="363" y="25"/>
      <point x="627.7618113911839" y="27.301307189520003" type="curve" smooth="yes"/>
      <point x="894" y="27"/>
      <point x="1073" y="148"/>
      <point x="1073.0984126984606" y="376.91699346404664" type="curve" smooth="yes"/>
      <point x="1073" y="577"/>
      <point x="894" y="717"/>
      <point x="627.7618113911839" y="717.0660130719067" type="curve" smooth="yes"/>
      <point x="363" y="715"/>
      <point x="186" y="579"/>
    </contour>
    <contour>
      <point x="237.22577030808952" y="1096.0830065359535" type="curve" smooth="yes"/>
      <point x="237" y="909"/>
      <point x="396" y="775"/>
      <point x="627.7618113911839" y="772.9339869280933" type="curve" smooth="yes"/>
      <point x="861" y="773"/>
      <point x="1021" y="909"/>
      <point x="1021.3461251166572" y="1096.0830065359535" type="curve" smooth="yes"/>
      <point x="1021" y="1291"/>
      <point x="861" y="1429"/>
      <point x="627.7618113911839" y="1428.69869281048" type="curve" smooth="yes"/>
      <point x="396" y="1431"/>
      <point x="237" y="1291"/>
    </contour>
  </outline>
</glyph>
<glyph name="J" format="2">
  <advance width="993"/>
  <unicode hex="004A"/>
  <outline>
    <contour>
      <point x="25.0" y="440.97647058821" type="curve" smooth="yes"/>
      <point x="25.0" y="450.97647058821" type="line"/>
      <point x="81.08627450975334" y="450.97647058821" type="line"/>
      <point x="81.08627450975334" y="440.97647058821" type="line" smooth="yes"/>
      <point x="81" y="170"/>
      <point x="213" y="27"/>
      <point x="431.93856209155666" y="27.118300653566664" type="curve" smooth="yes"/>
      <point x="650" y="27"/>
      <point x="783" y="184"/>
      <point x="782.7908496732167" y="465.97647058821" type="curve" smooth="yes"/>
      <point x="782.7908496732167" y="1456.0" type="line"/>
      <point x="837.4437908496366" y="1456.0" type="line"/>
      <point x="837.4437908496366" y="465.97647058821" type="line" smooth="yes"/>
      <point x="837" y="139"/>
      <point x="674" y="-30"/>
      <point x="431.93856209155666" y="-30.0" type="curve" smooth="yes"/>
      <point x="190" y="-30"/>
      <point x="25" y="128"/>
    </contour>
  </outline>
</glyph>
<glyph name="N" format="2">
  <advance width="1391"/>
  <unicode hex="004E"/>
  <outline>
    <contour>
      <point x="170.0" y="0.0" type="line"/>
      <point x="170.0" y="1456.0" type="line"/>
      <point x="247.0705882352267" y="1456.0" type="line"/>
      <point x="1095.1300653595333" y="144.30261437904" type="line" smooth="yes"/>
      <point x="1121" y="102"/>
      <point x="1146" y="60"/>
      <point x="1167.006162465003" y="27.41960784308668" type="curve"/>
      <point x="1175.4347338935745" y="27.41960784308668" type="line"/>
      <point x="1171" y="68"/>
      <point x="1168" y="93"/>
      <point x="1168.2143790850068" y="132.7692810457067" type="curve" smooth="yes"/>
      <point x="1168.2143790850068" y="1456.0" type="line"/>
      <point x="1221.43832679738" y="1456.0" type="line"/>
      <point x="1221.43832679738" y="0.0" type="line"/>
      <point x="1143.1457516339167" y="0.0" type="line"/>
      <point x="292.75359477118" y="1316.8967320262" type="line" smooth="yes"/>
      <point x="267" y="1359"/>
      <point x="224" y="1415"/>
      <point x="219.10812324928287" y="1440.9464052288201" type="curve"/>
      <point x="209.04827264237906" y="1440.9464052288201" type="line"/>
      <point x="218" y="1397"/>
      <point x="222" y="1337"/>
      <point x="222.00196078428002" y="1296.8967320262" type="curve" smooth="yes"/>
      <point x="222.00196078428002" y="0.0" type="line"/>
    </contour>
  </outline>
</glyph>
<glyph name="O" format="2">
  <advance width="1407"/>
  <unicode hex="004F"/>
  <outline>
    <contour>
      <point x="115.0" y="703.6349019608433" type="curve" smooth="yes"/>
      <point x="115.0" y="752.3650980391567" type="line" smooth="yes"/>
      <point x="115" y="1236"/>
      <point x="355" y="1486"/>
      <point x="703.4630980391568" y="1486.0" type="curve" smooth="yes"/>
      <point x="1051" y="1486"/>
      <point x="1292" y="1236"/>
      <point x="1291.9261960784565" y="752.3650980391567" type="curve" smooth="yes"/>
      <point x="1291.9261960784565" y="703.6349019608433" type="line" smooth="yes"/>
      <point x="1292" y="220"/>
      <point x="1051" y="-30"/>
      <point x="703.4630980391568" y="-30.0" type="curve" smooth="yes"/>
      <point x="356" y="-30"/>
      <point x="115" y="220"/>
    </contour>
    <contour>
      <point x="171.40393464046664" y="703.6349019608433" type="line" smooth="yes"/>
      <point x="171" y="252"/>
      <point x="384" y="28"/>
      <point x="703.4630980391568" y="27.80630065356665" type="curve" smooth="yes"/>
      <point x="1023" y="28"/>
      <point x="1236" y="252"/>
      <point x="1235.5222614378467" y="703.6349019608433" type="curve" smooth="yes"/>
      <point x="1235.5222614378467" y="752.3650980391567" type="line" smooth="yes"/>
      <point x="1236" y="1204"/>
      <point x="1023" y="1428"/>
      <point x="703.4630980391568" y="1428.1936993464335" type="curve" smooth="yes"/>
      <point x="384" y="1428"/>
      <point x="171" y="1204"/>
      <point x="171.40393464046664" y="752.3650980391567" type="curve" smooth="yes"/>
    </contour>
  </outline>
</glyph>
<glyph name="V" format="2">
  <advance width="1241"/>
  <unicode hex="0056"/>
  <outline>
    <contour>
      <point x="0.0" y="1456.0" type="line"/>
      <point x="64.40457516346333" y="1456.0" type="line"/>
      <point x="542.95294117642" y="188.96862745094666" type="line" smooth="yes"/>
      <point x="567" y="127"/>
      <point x="600" y="46"/>
      <point x="621.82875816987" y="-20.832679738573347" type="curve"/>
      <point x="628.626050420109" y="-20.832679738573347" type="line"/>
      <point x="651" y="46"/>
      <point x="681" y="127"/>
      <point x="705.8705882352267" y="188.96862745094666" type="curve" smooth="yes"/>
      <point x="1184.1189542483264" y="1456.0" type="line"/>
      <point x="1240.8888888889367" y="1456.0" type="line"/>
      <point x="670.1333333333333" y="-10.0" type="line"/>
      <point x="569.32222222227" y="-10.0" type="line"/>
    </contour>
  </outline>
</glyph>
<glyph name="Y" format="2">
  <advance width="1215"/>
  <unicode hex="0059"/>
  <outline>
    <contour>
      <point x="579.35116339869" y="0.0" type="line"/>
      <point x="579.35116339869" y="595.6303529411935" type="line"/>
      <point x="15.0" y="1456.0" type="line"/>
      <point x="89.69019607845667" y="1456.0" type="line"/>
      <point x="525.1901960784568" y="750.59934640524" type="line" smooth="yes"/>
      <point x="551" y="710"/>
      <point x="576" y="656"/>
      <point x="603.3601307189233" y="609.3927170867756" type="curve"/>
      <point x="613.2104575163032" y="609.3927170867756" type="line"/>
      <point x="640" y="656"/>
      <point x="661" y="710"/>
      <point x="687.0803921569134" y="750.59934640524" type="curve" smooth="yes"/>
      <point x="1127.9743790850066" y="1456.0" type="line"/>
      <point x="1199.1669281045135" y="1456.0" type="line"/>
      <point x="633.83210457511" y="595.6303529411935" type="line"/>
      <point x="633.83210457511" y="0.0" type="line"/>
    </contour>
  </outline>
</glyph>
<glyph name="Z" format="2">
  <advance width="1111"/>
  <unicode hex="005A"/>
  <outline>
    <contour>
      <point x="-11.307096171782376" y="0.0" type="line"/>
      <point x="-11.307096171782376" y="38.67064052285333" type="line"/>
      <point x="987.793505135351" y="1398.3456993464333" type="line"/>
      <point x="3.3482240896442903" y="1398.3456993464333" type="line"/>
      <point x="3.3482240896442903" y="1456.0" type="line"/>
      <point x="1087.1083155928475" y="1456.0" type="line"/>
      <point x="1087.1083155928475" y="1417.3293594771467" type="line"/>
      <point x="88.00771428571429" y="57.65430065356668" type="line"/>
      <point x="1124.8776227825108" y="57.65430065356668" type="line"/>
      <point x="1124.8776227825108" y="0.0" type="line"/>
    </contour>
  </outline>
</glyph>
<glyph name="a" format="2">
  <advance width="1083"/>
  <unicode hex="0061"/>
  <outline>
    <contour>
      <point x="90.0" y="287.76190476190476" type="curve" smooth="yes"/>
      <point x="90" y="500"/>
      <point x="270" y="614"/>
      <point x="525.3294117647733" y="614.0911297852361" type="curve" smooth="yes"/>
      <point x="873.92091503275" y="614.0911297852361" type="line"/>
      <point x="873.92091503275" y="744.8571428571429" type="line" smooth="yes"/>
      <point x="874" y="929"/>
      <point x="789" y="1051"/>
      <point x="550.69738562096" y="1050.955835667623" type="curve" smooth="yes"/>
      <point x="314" y="1051"/>
      <point x="222" y="941"/>
      <point x="221.93986928107665" y="785.302054155001" type="curve" smooth="yes"/>
      <point x="221.93986928107665" y="780.302054155001" type="line"/>
      <point x="171.42026143784668" y="780.302054155001" type="line"/>
      <point x="171.42026143784668" y="785.302054155001" type="line" smooth="yes"/>
      <point x="171" y="976"/>
      <point x="307" y="1107"/>
      <point x="558.1143790850067" y="1106.857142857143" type="curve" smooth="yes"/>
      <point x="794" y="1107"/>
      <point x="929" y="986"/>
      <point x="929.2908496732167" y="744.8571428571429" type="curve" smooth="yes"/>
      <point x="929.2908496732167" y="240.0" type="line" smooth="yes"/>
      <point x="929" y="153"/>
      <point x="946" y="75"/>
      <point x="976.0594771241632" y="16.0" type="curve"/>
      <point x="976.0594771241632" y="0.0" type="line"/>
      <point x="928.6568627451234" y="0.0" type="line"/>
      <point x="901" y="40"/>
      <point x="882" y="113"/>
      <point x="876.0379084967967" y="177.95238095238096" type="curve"/>
      <point x="813" y="86"/>
      <point x="659" y="-20"/>
      <point x="440.02287581703" y="-20.0" type="curve" smooth="yes"/>
      <point x="229" y="-20"/>
      <point x="90" y="67"/>
    </contour>
    <contour>
      <point x="144.38627450975335" y="287.7285714285714" type="curve" smooth="yes"/>
      <point x="144" y="112"/>
      <point x="243" y="36"/>
      <point x="461.19281045749665" y="35.90130718952" type="curve" smooth="yes"/>
      <point x="675" y="36"/>
      <point x="874" y="189"/>
      <point x="873.92091503275" y="337.83669467785427" type="curve"/>
      <point x="873.92091503275" y="558.4231559290495" type="line"/>
      <point x="550.69738562096" y="558.4231559290495" type="line" smooth="yes"/>
      <point x="283" y="558"/>
      <point x="144" y="463"/>
    </contour>
  </outline>
</glyph>
<glyph name="d" format="2">
  <advance width="1149"/>
  <unicode hex="0064"/>
  <outline>
    <contour>
      <point x="85.0" y="522.4285714285714" type="curve" smooth="yes"/>
      <point x="85.0" y="554.4285714285714" type="line" smooth="yes"/>
      <point x="85" y="870"/>
      <point x="249" y="1097"/>
      <point x="533.3987712417767" y="1096.857142857143" type="curve" smooth="yes"/>
      <point x="723" y="1097"/>
      <point x="857" y="1028"/>
      <point x="944.1261699346434" y="931.2222408962995" type="curve"/>
      <point x="944.1261699346434" y="1536.0" type="line"/>
      <point x="999.9547712417766" y="1536.0" type="line"/>
      <point x="999.9547712417766" y="0.0" type="line"/>
      <point x="949.16883660131" y="0.0" type="line"/>
      <point x="946.9988496732167" y="158.63490196084334" type="line"/>
      <point x="948.3555032679767" y="158.63490196084334" type="line"/>
      <point x="873" y="63"/>
      <point x="722" y="-20"/>
      <point x="533.3987712417767" y="-20.0" type="curve" smooth="yes"/>
      <point x="249" y="-20"/>
      <point x="85" y="207"/>
    </contour>
    <contour>
      <point x="139.60227450975333" y="522.4285714285714" type="line" smooth="yes"/>
      <point x="140" y="234"/>
      <point x="267" y="38"/>
      <point x="553.6423790850066" y="38.48596078428001" type="curve" smooth="yes"/>
      <point x="747" y="38"/>
      <point x="885" y="134"/>
      <point x="944.1261699346434" y="241.08653594774336" type="curve"/>
      <point x="944.1261699346434" y="835.7706069093995" type="line"/>
      <point x="885" y="943"/>
      <point x="747" y="1038"/>
      <point x="553.6423790850066" y="1038.371182072863" type="curve" smooth="yes"/>
      <point x="267" y="1038"/>
      <point x="140" y="842"/>
      <point x="139.60227450975333" y="554.4285714285714" type="curve" smooth="yes"/>
    </contour>
  </outline>
</glyph>
<glyph name="e" format="2">
  <advance width="1034"/>
  <unicode hex="0065"/>
  <outline>
    <contour>
      <point x="85.0" y="522.4285714285714" type="curve" smooth="yes"/>
      <point x="85.0" y="554.4285714285714" type="line" smooth="yes"/>
      <point x="85" y="881"/>
      <point x="268" y="1107"/>
      <point x="549.8143790850066" y="1106.857142857143" type="curve" smooth="yes"/>
      <point x="825" y="1107"/>
      <point x="977" y="925"/>
      <point x="976.8601307189233" y="572.4285714285714" type="curve" smooth="yes"/>
      <point x="976.8601307189233" y="542.2109243697647" type="line"/>
      <point x="101.98300653595334" y="542.2109243697647" type="line"/>
      <point x="101.98300653595334" y="597.6625583566647" type="line"/>
      <point x="920.830999066313" y="597.6625583566647" type="line"/>
      <point x="920.830999066313" y="575.0302521008318" type="line" smooth="yes"/>
      <point x="921" y="907"/>
      <point x="815" y="1048"/>
      <point x="536.7641456582043" y="1047.8551820728628" type="curve" smooth="yes"/>
      <point x="282" y="1048"/>
      <point x="137" y="850"/>
      <point x="137.11895424832667" y="554.4285714285714" type="curve" smooth="yes"/>
      <point x="137.11895424832667" y="522.4285714285714" type="line" smooth="yes"/>
      <point x="137" y="229"/>
      <point x="274" y="29"/>
      <point x="586.1660130719067" y="29.00196078428" type="curve" smooth="yes"/>
      <point x="743" y="29"/>
      <point x="847" y="79"/>
      <point x="926.0071895425034" y="168.48627450975334" type="curve"/>
      <point x="966.3588235294033" y="121.96666666666667" type="line"/>
      <point x="896" y="41"/>
      <point x="772" y="-30"/>
      <point x="586.1660130719067" y="-30.0" type="curve" smooth="yes"/>
      <point x="262" y="-30"/>
      <point x="85" y="196"/>
    </contour>
  </outline>
</glyph>
<glyph name="f" format="2">
  <advance width="620"/>
  <unicode hex="0066"/>
  <outline>
    <contour>
      <point x="265.0023529411933" y="0.0" type="line"/>
      <point x="265.0023529411933" y="1167.2188235294034" type="line" smooth="yes"/>
      <point x="265" y="1421"/>
      <point x="383" y="1556"/>
      <point x="576.8499869280934" y="1556.0" type="curve" smooth="yes"/>
      <point x="624" y="1556"/>
      <point x="674" y="1548"/>
      <point x="715.82650980393" y="1540.0" type="curve"/>
      <point x="703.9255163398834" y="1488.4053594771467" type="line"/>
      <point x="673" y="1495"/>
      <point x="625" y="1503"/>
      <point x="580.1929673202333" y="1503.27869281048" type="curve" smooth="yes"/>
      <point x="413" y="1503"/>
      <point x="319" y="1392"/>
      <point x="318.86363398689997" y="1167.2188235294034" type="curve" smooth="yes"/>
      <point x="318.86363398689997" y="1053.8764892623828" type="line"/>
      <point x="318.86363398689997" y="1043.572489262383" type="line"/>
      <point x="318.86363398689997" y="0.0" type="line"/>
    </contour>
    <contour>
      <point x="25.0" y="1018.6245154061962" type="line"/>
      <point x="25.0" y="1076.857142857143" type="line"/>
      <point x="279.37103267976664" y="1076.857142857143" type="line"/>
      <point x="301.61030065356664" y="1076.857142857143" type="line"/>
      <point x="630.5185882352267" y="1076.857142857143" type="line"/>
      <point x="630.5185882352267" y="1018.6245154061962" type="line"/>
    </contour>
  </outline>
</glyph>
<glyph name="j" format="2">
  <advance width="368"/>
  <unicode hex="006A"/>
  <outline>
    <contour>
      <point x="-183.65359477118" y="-415.73333333333335" type="curve"/>
      <point x="-183.65359477118" y="-360.69869281048" type="line"/>
      <point x="-155" y="-369"/>
      <point x="-98" y="-379"/>
      <point x="-58.52941176477334" y="-379.26535947714666" type="curve" smooth="yes"/>
      <point x="78" y="-379"/>
      <point x="157" y="-306"/>
      <point x="157.0" y="-126.06535947714666" type="curve" smooth="yes"/>
      <point x="157.0" y="1076.857142857143" type="line"/>
      <point x="211.38627450975335" y="1076.857142857143" type="line"/>
      <point x="211.38627450975335" y="-90.0" type="line" smooth="yes"/>
      <point x="211" y="-331"/>
      <point x="119" y="-436"/>
      <point x="-59.81503267976666" y="-436.0" type="curve" smooth="yes"/>
      <point x="-109" y="-436"/>
      <point x="-156" y="-423"/>
    </contour>
    <contour>
      <point x="146.53464052285335" y="1412.9014005602412" type="curve" smooth="yes"/>
      <point x="147" y="1446"/>
      <point x="161" y="1473"/>
      <point x="183.70130718952" y="1473.2007469654811" type="curve" smooth="yes"/>
      <point x="207" y="1473"/>
      <point x="221" y="1446"/>
      <point x="220.86797385618667" y="1412.9014005602412" type="curve" smooth="yes"/>
      <point x="221" y="1377"/>
      <point x="207" y="1351"/>
      <point x="184.68496732023334" y="1351.1687208216679" type="curve" smooth="yes"/>
      <point x="162" y="1351"/>
      <point x="147" y="1377"/>
    </contour>
  </outline>
</glyph>
<glyph name="k" format="2">
  <advance width="1029"/>
  <unicode hex="006B"/>
  <outline>
    <contour>
      <point x="148.0" y="0.0" type="line"/>
      <point x="148.0" y="1536.0" type="line"/>
      <point x="202.84494117642" y="1536.0" type="line"/>
      <point x="202.84494117642" y="548.9688029878562" type="line"/>
      <point x="861.5617180206062" y="1076.857142857143" type="line"/>
      <point x="982.0825751634634" y="1076.857142857143" type="line"/>
      <point x="202.38627450975335" y="482.67749766571046" type="line"/>
      <point x="202.38627450975335" y="0.0" type="line"/>
    </contour>
    <contour>
      <point x="942.3867600373877" y="0.0" type="line"/>
      <point x="363.7446946778543" y="627.2820317460795" type="line"/>
      <point x="425.52893183940523" y="666.5188608777491" type="line"/>
      <point x="1045.1241830065499" y="0.0" type="line"/>
    </contour>
  </outline>
</glyph>
<glyph name="m" format="2">
  <advance width="1813"/>
  <unicode hex="006D"/>
  <outline>
    <contour>
      <point x="148.0" y="0.0" type="line"/>
      <point x="148.0" y="1076.857142857143" type="line"/>
      <point x="198.78593464046665" y="1076.857142857143" type="line"/>
      <point x="199.97226143784667" y="898.5873389355995" type="line"/>
      <point x="197.63194771237335" y="898.5873389355995" type="line"/>
      <point x="298" y="1029"/>
      <point x="425" y="1097"/>
      <point x="596.1046666666667" y="1096.857142857143" type="curve" smooth="yes"/>
      <point x="755" y="1097"/>
      <point x="872" y="1029"/>
      <point x="914.7419346404666" y="900.2159402427328" type="curve"/>
      <point x="912.6309542483266" y="900.2159402427328" type="line"/>
      <point x="1011" y="1032"/>
      <point x="1154" y="1097"/>
      <point x="1326.2336339868998" y="1096.857142857143" type="curve" smooth="yes"/>
      <point x="1536" y="1097"/>
      <point x="1675" y="994"/>
      <point x="1675.3291503267835" y="724.2891690009562" type="curve" smooth="yes"/>
      <point x="1675.3291503267835" y="0.0" type="line"/>
      <point x="1621.4678692810767" y="0.0" type="line"/>
      <point x="1621.4678692810767" y="726.2891690009562" type="line" smooth="yes"/>
      <point x="1618" y="951"/>
      <point x="1509" y="1039"/>
      <point x="1309.40734640524" y="1039.253508870243" type="curve" smooth="yes"/>
      <point x="1140" y="1039"/>
      <point x="1021" y="944"/>
      <point x="939.57887581703" y="818.1357049486995" type="curve"/>
      <point x="939.57887581703" y="0.0" type="line"/>
      <point x="883.7502745097532" y="0.0" type="line"/>
      <point x="883.7502745097532" y="726.2891690009562" type="line" smooth="yes"/>
      <point x="882" y="951"/>
      <point x="771" y="1039"/>
      <point x="572.6734117647734" y="1039.253508870243" type="curve" smooth="yes"/>
      <point x="405" y="1039"/>
      <point x="284" y="944"/>
      <point x="202.84494117642" y="818.1357049486995" type="curve"/>
      <point x="202.84494117642" y="0.0" type="line"/>
    </contour>
  </outline>
</glyph>
<glyph name="p" format="2">
  <advance width="1149"/>
  <unicode hex="0070"/>
  <outline>
    <contour>
      <point x="148.0" y="-416.0" type="line"/>
      <point x="148.0" y="1076.857142857143" type="line"/>
      <point x="198.78593464046665" y="1076.857142857143" type="line"/>
      <point x="199.97226143784667" y="918.2222408962995" type="line"/>
      <point x="197.63194771237335" y="918.2222408962995" type="line"/>
      <point x="276" y="1014"/>
      <point x="426" y="1097"/>
      <point x="613.5723398692867" y="1096.857142857143" type="curve" smooth="yes"/>
      <point x="898" y="1097"/>
      <point x="1062" y="870"/>
      <point x="1061.9711111110632" y="554.4285714285714" type="curve" smooth="yes"/>
      <point x="1061.9711111110632" y="522.4285714285714" type="line" smooth="yes"/>
      <point x="1062" y="207"/>
      <point x="898" y="-20"/>
      <point x="613.5723398692867" y="-20.0" type="curve" smooth="yes"/>
      <point x="426" y="-20"/>
      <point x="292" y="49"/>
      <point x="202.84494117642" y="145.63490196084334" type="curve"/>
      <point x="202.84494117642" y="-416.0" type="line"/>
    </contour>
    <contour>
      <point x="202.84494117642" y="241.08653594774336" type="line"/>
      <point x="262" y="134"/>
      <point x="400" y="38"/>
      <point x="592.3450718954867" y="38.48596078428001" type="curve" smooth="yes"/>
      <point x="880" y="38"/>
      <point x="1006" y="234"/>
      <point x="1006.3851764705967" y="522.4285714285714" type="curve" smooth="yes"/>
      <point x="1006.3851764705967" y="554.4285714285714" type="line" smooth="yes"/>
      <point x="1006" y="842"/>
      <point x="880" y="1038"/>
      <point x="592.3450718954867" y="1038.371182072863" type="curve" smooth="yes"/>
      <point x="400" y="1038"/>
      <point x="263" y="943"/>
      <point x="202.84494117642" y="835.7706069093995" type="curve"/>
    </contour>
  </outline>
</glyph>
<glyph name="r" format="2">
  <advance width="704"/>
  <unicode hex="0072"/>
  <outline>
    <contour>
      <point x="148.0" y="0.0" type="line"/>
      <point x="148.0" y="1076.857142857143" type="line"/>
      <point x="198.78593464046665" y="1076.857142857143" type="line"/>
      <point x="199.97226143784667" y="913.0106069093995" type="line"/>
      <point x="197.63194771237335" y="913.0106069093995" type="line"/>
      <point x="278" y="1015"/>
      <point x="400" y="1107"/>
      <point x="573.0180915032034" y="1106.857142857143" type="curve" smooth="yes"/>
      <point x="610" y="1107"/>
      <point x="657" y="1098"/>
      <point x="674.4236601307133" y="1092.857142857143" type="curve"/>
      <point x="674.4236601307133" y="1035.8138487395295" type="line"/>
      <point x="640" y="1041"/>
      <point x="606" y="1048"/>
      <point x="561.3464313724901" y="1047.7125154061962" type="curve" smooth="yes"/>
      <point x="399" y="1048"/>
      <point x="270" y="950"/>
      <point x="202.84494117642" y="827.5753127917861" type="curve"/>
      <point x="202.84494117642" y="0.0" type="line"/>
    </contour>
  </outline>
</glyph>
<glyph name="y" format="2">
  <advance width="1197"/>
  <unicode hex="0079"/>
  <outline>
    <contour>
      <point x="174.5032679738" y="-416.0" type="curve"/>
      <point x="174.5032679738" y="-364.43202614381335" type="line"/>
      <point x="219" y="-375"/>
      <point x="274" y="-385"/>
      <point x="317.12745098035" y="-385.29869281048" type="curve" smooth="yes"/>
      <point x="431" y="-385"/>
      <point x="453" y="-409"/>
      <point x="621.9152194210652" y="-16.234080298814284" type="curve"/>
      <point x="630.272362278208" y="6.689729224995238" type="line"/>
      <point x="137.56666666666666" y="1076.857142857143" type="line"/>
      <point x="214.95686274512332" y="1076.857142857143" type="line"/>
      <point x="617.1091503267833" y="156.26946778714859" type="line" smooth="yes"/>
      <point x="635" y="124"/>
      <point x="646" y="100"/>
      <point x="662.1280112045324" y="43.91055088702427" type="curve"/>
      <point x="669.5613445378657" y="43.91055088702427" type="line"/>
      <point x="685" y="100"/>
      <point x="693" y="124"/>
      <point x="710.9816059757125" y="156.26946778714859" type="curve" smooth="yes"/>
      <point x="1125.2888888889368" y="1076.857142857143" type="line"/>
      <point x="1194.7444444443968" y="1076.857142857143" type="line"/>
      <point x="660.7784313724899" y="-52.56666666666666" type="line" smooth="yes"/>
      <point x="528" y="-349"/>
      <point x="483" y="-436"/>
      <point x="320.04509803915664" y="-436.0" type="curve" smooth="yes"/>
      <point x="258" y="-436"/>
      <point x="218" y="-427"/>
    </contour>
  </outline>
</glyph>
<glyph name="braceleft" format="2">
  <advance width="570"/>
  <unicode hex="007B"/>
  <outline>
    <contour>
      <point x="609.6729673202334" y="-312.0" type="line"/>
      <point x="311" y="-312"/>
      <point x="140" y="-120"/>
      <point x="220.68935947714664" y="151.84653594774335" type="curve" smooth="yes"/>
      <point x="274.03267973857334" y="332.03267973857334" type="line" smooth="yes"/>
      <point x="322" y="505"/>
      <point x="201" y="545"/>
      <point x="26.270169934643334" y="545.0193464052401" type="curve"/>
      <point x="26.270169934643334" y="602.9806535947599" type="line"/>
      <point x="201" y="603"/>
      <point x="322" y="643"/>
      <point x="274.03267973857334" y="815.9673202614267" type="curve" smooth="yes"/>
      <point x="220.68935947714664" y="996.1534640522566" type="line" smooth="yes"/>
      <point x="140" y="1268"/>
      <point x="311" y="1460"/>
      <point x="609.6729673202334" y="1460.0" type="curve"/>
      <point x="609.6729673202334" y="1403.6333594771465" type="line"/>
      <point x="320" y="1404"/>
      <point x="206" y="1237"/>
      <point x="277.65563398689994" y="994.18614379083" type="curve" smooth="yes"/>
      <point x="331.98261437904" y="814.0" type="line" smooth="yes"/>
      <point x="365" y="703"/>
      <point x="316" y="599"/>
      <point x="187.9812549018933" y="574.0" type="curve"/>
      <point x="316" y="549"/>
      <point x="363" y="446"/>
      <point x="331.98261437904" y="334.0" type="curve" smooth="yes"/>
      <point x="277.65563398689994" y="153.81385620917" type="line" smooth="yes"/>
      <point x="206" y="-89"/>
      <point x="320" y="-256"/>
      <point x="609.6729673202334" y="-255.63335947714666" type="curve"/>
    </contour>
  </outline>
</glyph>
<glyph name="braceright" format="2">
  <advance width="570"/>
  <unicode hex="007D"/>
  <outline>
    <contour>
      <point x="-40.67401307190667" y="-312.0" type="curve"/>
      <point x="-40.67401307190667" y="-255.63335947714666" type="line"/>
      <point x="249" y="-256"/>
      <point x="364" y="-89"/>
      <point x="291.34332026142664" y="153.81385620917" type="curve" smooth="yes"/>
      <point x="238.0" y="334.0" type="line" smooth="yes"/>
      <point x="207" y="446"/>
      <point x="253" y="549"/>
      <point x="382.00135947714665" y="574.0" type="curve"/>
      <point x="253" y="599"/>
      <point x="207" y="702"/>
      <point x="238.0" y="814.0" type="curve" smooth="yes"/>
      <point x="291.34332026142664" y="994.18614379083" type="line" smooth="yes"/>
      <point x="364" y="1237"/>
      <point x="249" y="1404"/>
      <point x="-40.67401307190667" y="1403.6333594771465" type="curve"/>
      <point x="-40.67401307190667" y="1460.0" type="line"/>
      <point x="258" y="1460"/>
      <point x="430" y="1268"/>
      <point x="349.2932549018933" y="996.1534640522566" type="curve" smooth="yes"/>
      <point x="294.96627450975336" y="815.9673202614267" type="line" smooth="yes"/>
      <point x="247" y="643"/>
      <point x="368" y="603"/>
      <point x="543.7124444443967" y="602.9806535947599" type="curve"/>
      <point x="543.7124444443967" y="545.0193464052401" type="line"/>
      <point x="368" y="545"/>
      <point x="247" y="505"/>
      <point x="294.96627450975336" y="332.03267973857334" type="curve" smooth="yes"/>
      <point x="349.2932549018933" y="151.84653594774335" type="line" smooth="yes"/>
      <point x="430" y="-120"/>
      <point x="258" y="-312"/>
    </contour>
  </outline>
</glyph>
<glyph name="asciitilde" format="2">
  <advance width="1582"/>
  <unicode hex="007E"/>
  <outline>
    <contour>
      <point x="325.48366013071336" y="620.8666666666667" type="curve"/>
      <point x="325.48366013071336" y="673.8" type="line"/>
      <point x="388" y="719"/>
      <point x="482" y="743"/>
      <point x="569.17450980393" y="744.1" type="curve" smooth="yes"/>
      <point x="570" y="745"/>
      <point x="707" y="718"/>
      <point x="787.9980392157199" y="701.64967320262" type="curve" smooth="yes"/>
      <point x="870" y="687"/>
      <point x="1011" y="654"/>
      <point x="1019.4882352941768" y="653.7" type="curve" smooth="yes"/>
      <point x="1107" y="654"/>
      <point x="1194" y="684"/>
      <point x="1256.6287581698698" y="735.8333333333334" type="curve"/>
      <point x="1256.6287581698698" y="680.4666666666667" type="line"/>
      <point x="1194" y="637"/>
      <point x="1108" y="610"/>
      <point x="1020.4882352941768" y="610.1666666666666" type="curve" smooth="yes"/>
      <point x="1022" y="610"/>
      <point x="903" y="631"/>
      <point x="834.7803921569133" y="639.4830065359533" type="curve" smooth="yes"/>
      <point x="739" y="662"/>
      <point x="581" y="702"/>
      <point x="569.17450980393" y="702.0" type="curve" smooth="yes"/>
      <point x="482" y="702"/>
      <point x="388" y="672"/>
    </contour>
  </outline>
</glyph>
<glyph name="exclamdown" format="2">
  <advance width="467"/>
  <unicode hex="00A1"/>
  <outline>
    <contour>
      <point x="280.6333333333333" y="1093.1333333333334" type="curve" smooth="yes"/>
      <point x="281" y="1051"/>
      <point x="263" y="1017"/>
      <point x="232.6" y="1017.1333333333333" type="curve" smooth="yes"/>
      <point x="202" y="1017"/>
      <point x="186" y="1051"/>
      <point x="186.0" y="1093.1333333333334" type="curve" smooth="yes"/>
      <point x="186" y="1136"/>
      <point x="202" y="1169"/>
      <point x="232.6" y="1169.1333333333334" type="curve" smooth="yes"/>
      <point x="263" y="1169"/>
      <point x="281" y="1136"/>
    </contour>
    <contour>
      <point x="251.53333333333333" y="737.1333333333333" type="line"/>
      <point x="255.06666666666666" y="-308.8666666666667" type="line"/>
      <point x="210.13333333333333" y="-308.8666666666667" type="line"/>
      <point x="215.1" y="737.1333333333333" type="line"/>
    </contour>
  </outline>
</glyph>
<glyph name="currency" format="2">
  <advance width="1158"/>
  <unicode hex="00A4"/>
  <guideline x="0" y="901.0" angle="0" identifier="bRYxxRaQQf"/>
  <guideline x="0" y="555.0" angle="0" identifier="917FhrihjR"/>
  <outline>
    <contour>
      <point x="210.83333333333334" y="712.0" type="curve"/>
      <point x="211" y="497"/>
      <point x="372" y="336"/>
      <point x="576.0" y="335.73333333333335" type="curve" smooth="yes"/>
      <point x="779" y="336"/>
      <point x="939" y="497"/>
      <point x="939.1666666666666" y="712.0" type="curve" smooth="yes"/>
      <point x="939" y="925"/>
      <point x="779" y="1086"/>
      <point x="576.0" y="1086.2666666666667" type="curve" smooth="yes"/>
      <point x="372" y="1086"/>
      <point x="211" y="925"/>
    </contour>
    <contour>
      <point x="158.26666666666665" y="718.0" type="curve"/>
      <point x="158" y="958"/>
      <point x="348" y="1142"/>
      <point x="575.0" y="1141.8666666666666" type="curve" smooth="yes"/>
      <point x="802" y="1142"/>
      <point x="992" y="958"/>
      <point x="991.7333333333333" y="718.0" type="curve" smooth="yes"/>
      <point x="992" y="477"/>
      <point x="802" y="292"/>
      <point x="575.0" y="292.1333333333333" type="curve" smooth="yes"/>
      <point x="348" y="292"/>
      <point x="158" y="477"/>
    </contour>
    <contour>
      <point x="1076.0" y="1221.8666666666666" type="line"/>
      <point x="874.0" y="1015.8666666666667" type="line"/>
      <point x="839.4333333333334" y="1052.5666666666666" type="line"/>
      <point x="1041.4333333333334" y="1258.5666666666666" type="line"/>
    </contour>
    <contour>
      <point x="292.0" y="399.8666666666667" type="line"/>
      <point x="90.0" y="193.86666666666667" type="line"/>
      <point x="56.43333333333334" y="229.56666666666666" type="line"/>
      <point x="258.43333333333334" y="434.56666666666666" type="line"/>
    </contour>
    <contour>
      <point x="1067.4333333333334" y="200.86666666666667" type="line"/>
      <point x="865.4333333333334" y="406.8666666666667" type="line"/>
      <point x="901.0" y="442.56666666666666" type="line"/>
      <point x="1103.0" y="237.56666666666666" type="line"/>
    </contour>
    <contour>
      <point x="275.43333333333334" y="1029.8666666666666" type="line"/>
      <point x="73.43333333333334" y="1235.8666666666666" type="line"/>
      <point x="107.0" y="1271.5666666666666" type="line"/>
      <point x="309.0" y="1065.5666666666666" type="line"/>
    </contour>
  </outline>
</glyph>
<glyph name="copyright" format="2">
  <advance width="1654"/>
  <unicode hex="00A9"/>
  <guideline x="0" y="901.0" angle="0" identifier="0Pjz0qKr8z"/>
  <guideline x="0" y="555.0" angle="0" identifier="sJo8BlDiJ7"/>
  <outline>
    <contour>
      <point x="1151.8333333333333" y="513.0333333333333" type="curve"/>
      <point x="1193.3666666666666" y="513.0333333333333" type="line"/>
      <point x="1193" y="374"/>
      <point x="1101" y="205"/>
      <point x="854.5666666666667" y="205.0" type="curve" smooth="yes"/>
      <point x="585" y="205"/>
      <point x="433" y="413"/>
      <point x="433.3333333333333" y="676.9" type="curve" smooth="yes"/>
      <point x="433.3333333333333" y="700.1333333333333" type="line" smooth="yes"/>
      <point x="433" y="963"/>
      <point x="587" y="1167"/>
      <point x="847.2" y="1167.1333333333334" type="curve" smooth="yes"/>
      <point x="1080" y="1167"/>
      <point x="1193" y="1008"/>
      <point x="1192.9333333333334" y="859.1" type="curve"/>
      <point x="1151.4" y="859.1" type="line"/>
      <point x="1151" y="994"/>
      <point x="1065" y="1135"/>
      <point x="847.6333333333333" y="1135.0" type="curve" smooth="yes"/>
      <point x="593" y="1135"/>
      <point x="477" y="930"/>
      <point x="477.26666666666665" y="681.0666666666666" type="curve" smooth="yes"/>
      <point x="477.26666666666665" y="695.5333333333333" type="line" smooth="yes"/>
      <point x="477" y="446"/>
      <point x="595" y="240"/>
      <point x="843.7333333333333" y="240.16666666666669" type="curve" smooth="yes"/>
      <point x="1061" y="240"/>
      <point x="1152" y="378"/>
    </contour>
    <contour>
      <point x="115.76666666666667" y="687.0" type="curve" smooth="yes"/>
      <point x="116" y="233"/>
      <point x="402" y="-78"/>
      <point x="828.0" y="-77.7" type="curve" smooth="yes"/>
      <point x="1253" y="-78"/>
      <point x="1538" y="233"/>
      <point x="1537.8" y="687.0" type="curve" smooth="yes"/>
      <point x="1538" y="1138"/>
      <point x="1253" y="1450"/>
      <point x="828.0" y="1450.1333333333334" type="curve" smooth="yes"/>
      <point x="402" y="1450"/>
      <point x="116" y="1138"/>
    </contour>
    <contour>
      <point x="52.333333333333336" y="687.0" type="curve" smooth="yes"/>
      <point x="52" y="1159"/>
      <point x="390" y="1505"/>
      <point x="827.0" y="1504.6666666666667" type="curve" smooth="yes"/>
      <point x="1262" y="1505"/>
      <point x="1602" y="1159"/>
      <point x="1601.6666666666667" y="687.0" type="curve" smooth="yes"/>
      <point x="1602" y="218"/>
      <point x="1262" y="-133"/>
      <point x="827.0" y="-132.66666666666666" type="curve" smooth="yes"/>
      <point x="390" y="-133"/>
      <point x="52" y="218"/>
    </contour>
  </outline>
</glyph>
<glyph name="paragraph" format="2">
  <advance width="1098"/>
  <unicode hex="00B6"/>
  <guideline x="0" y="901.0" angle="0" identifier="27539Lsr1A"/>
  <guideline x="0" y="555.0" angle="0" identifier="e34wUdCmXR"/>
  <outline>
    <contour>
      <point x="536.6333333333333" y="-146.0" type="line"/>
      <point x="493.9666666666667" y="-146.0" type="line"/>
      <point x="493.9666666666667" y="905.2666666666667" type="line"/>
      <point x="431.3333333333333" y="905.2666666666667" type="line" smooth="yes"/>
      <point x="241" y="905"/>
      <point x="138" y="1020"/>
      <point x="137.7" y="1180.6333333333334" type="curve" smooth="yes"/>
      <point x="138" y="1338"/>
      <point x="241" y="1456"/>
      <point x="431.3333333333333" y="1456.0" type="curve" smooth="yes"/>
      <point x="536.6333333333333" y="1456.0" type="line"/>
    </contour>
    <contour>
      <point x="821.9666666666667" y="1459.0" type="line"/>
      <point x="864.6333333333333" y="1459.0" type="line"/>
      <point x="864.6333333333333" y="-146.0" type="line"/>
      <point x="821.9666666666667" y="-146.0" type="line"/>
    </contour>
  </outline>
</glyph>
<glyph name="periodcentered" format="2">
  <advance width="356"/>
  <unicode hex="00B7"/>
  <outline>
    <contour>
      <point x="104.33333333333333" y="749.0" type="curve" smooth="yes"/>
      <point x="104" y="790"/>
      <point x="130" y="821"/>
      <point x="178.16666666666669" y="820.7" type="curve" smooth="yes"/>
      <point x="226" y="821"/>
      <point x="251" y="790"/>
      <point x="250.56666666666666" y="749.0" type="curve" smooth="yes"/>
      <point x="251" y="708"/>
      <point x="226" y="677"/>
      <point x="178.16666666666669" y="677.3" type="curve" smooth="yes"/>
      <point x="130" y="677"/>
      <point x="104" y="708"/>
    </contour>
  </outline>
</glyph>
<glyph name="questiondown" format="2">
  <advance width="968"/>
  <unicode hex="00BF"/>
  <guideline x="0" y="-181.0" angle="0" identifier="apukwP5ffL"/>
  <guideline x="0" y="921.0" angle="0" identifier="5ZPZZL8Rim"/>
  <outline>
    <contour>
      <point x="559.1333333333333" y="1094.0" type="curve" smooth="yes"/>
      <point x="559" y="1051"/>
      <point x="542" y="1018"/>
      <point x="511.1" y="1018.0" type="curve" smooth="yes"/>
      <point x="481" y="1018"/>
      <point x="463" y="1051"/>
      <point x="463.06666666666666" y="1094.0" type="curve" smooth="yes"/>
      <point x="463" y="1137"/>
      <point x="481" y="1170"/>
      <point x="511.1" y="1170.0" type="curve" smooth="yes"/>
      <point x="542" y="1170"/>
      <point x="559" y="1137"/>
    </contour>
    <contour>
      <point x="766.1" y="53.0" type="line"/>
      <point x="766.1" y="33.0" type="line" smooth="yes"/>
      <point x="766" y="-184"/>
      <point x="654" y="-328"/>
      <point x="470.76666666666665" y="-328.0" type="curve" smooth="yes"/>
      <point x="289" y="-328"/>
      <point x="181" y="-184"/>
      <point x="181.43333333333334" y="-0.7333333333333343" type="curve" smooth="yes"/>
      <point x="181" y="185"/>
      <point x="229" y="264"/>
      <point x="342.6666666666667" y="398.1" type="curve" smooth="yes"/>
      <point x="458" y="536"/>
      <point x="490" y="621"/>
      <point x="490.1666666666667" y="728.0" type="curve" smooth="yes"/>
      <point x="490.1666666666667" y="738.0" type="line"/>
      <point x="537.1333333333333" y="738.0" type="line"/>
      <point x="537.1333333333333" y="728.0" type="line" smooth="yes"/>
      <point x="537" y="580"/>
      <point x="477" y="487"/>
      <point x="377.1333333333333" y="366.43333333333334" type="curve" smooth="yes"/>
      <point x="273" y="243"/>
      <point x="228" y="158"/>
      <point x="228.4" y="-0.7333333333333343" type="curve" smooth="yes"/>
      <point x="228" y="-158"/>
      <point x="308" y="-275"/>
      <point x="470.76666666666665" y="-274.93333333333334" type="curve" smooth="yes"/>
      <point x="634" y="-275"/>
      <point x="720" y="-162"/>
      <point x="720.1333333333333" y="33.0" type="curve" smooth="yes"/>
      <point x="720.1333333333333" y="53.0" type="line"/>
    </contour>
  </outline>
</glyph>
<glyph name="germandbls" format="2">
  <advance width="1186"/>
  <unicode hex="00DF"/>
  <outline>
    <contour>
      <point x="303.3333333333333" y="1092.0" type="curve" name="hr00"/>
      <point x="303.3333333333333" y="0.0" type="line"/>
      <point x="255.5" y="0.0" type="line"/>
      <point x="255.5" y="1092.0" type="line" smooth="yes"/>
      <point x="256" y="1383"/>
      <point x="373" y="1534"/>
      <point x="583.6666666666666" y="1534.0" type="curve" smooth="yes"/>
      <point x="778" y="1534"/>
      <point x="877" y="1426"/>
      <point x="876.8666666666667" y="1215.0" type="curve" smooth="yes"/>
      <point x="877" y="1151"/>
      <point x="847" y="1057"/>
      <point x="785.5666666666666" y="978.7333333333333" type="curve" smooth="yes"/>
      <point x="745" y="928"/>
      <point x="683" y="849"/>
      <point x="683.1" y="802.7666666666667" type="curve" smooth="yes"/>
      <point x="683" y="744"/>
      <point x="777" y="659"/>
      <point x="887.0666666666666" y="577.4333333333333" type="curve" smooth="yes"/>
      <point x="1026" y="473"/>
      <point x="1084" y="405"/>
      <point x="1083.5333333333333" y="282.0" type="curve" smooth="yes"/>
      <point x="1084" y="114"/>
      <point x="977" y="-20"/>
      <point x="753.0" y="-20.0" type="curve" smooth="yes"/>
      <point x="560" y="-20"/>
      <point x="449" y="99"/>
      <point x="449.3333333333333" y="289.46666666666664" type="curve" smooth="yes"/>
      <point x="449.3333333333333" y="304.0" type="line"/>
      <point x="512.0" y="304.0" type="line"/>
      <point x="512.0" y="283.53333333333336" type="line" smooth="yes"/>
      <point x="512" y="125"/>
      <point x="607" y="32"/>
      <point x="755.0" y="32.099999999999994" type="curve" smooth="yes"/>
      <point x="935" y="32"/>
      <point x="1035" y="128"/>
      <point x="1034.6666666666667" y="302.0" type="curve" smooth="yes"/>
      <point x="1035" y="352"/>
      <point x="1002" y="428"/>
      <point x="870.0666666666667" y="526.3333333333334" type="curve" smooth="yes"/>
      <point x="772" y="599"/>
      <point x="635" y="684"/>
      <point x="634.6666666666666" y="799.8666666666667" type="curve" smooth="yes"/>
      <point x="635" y="889"/>
      <point x="692" y="946"/>
      <point x="735.3333333333334" y="1004.5" type="curve" smooth="yes"/>
      <point x="795" y="1087"/>
      <point x="828" y="1160"/>
      <point x="828.0" y="1212.6" type="curve" smooth="yes"/>
      <point x="828" y="1378"/>
      <point x="745" y="1482"/>
      <point x="579.6666666666666" y="1481.9" type="curve" smooth="yes"/>
      <point x="399" y="1482"/>
      <point x="303" y="1338"/>
    </contour>
  </outline>
</glyph>
<glyph name="schwa" format="2">
  <advance width="849"/>
  <unicode hex="0259"/>
  <outline>
    <contour>
      <point x="764.3" y="542.0" type="curve" smooth="yes"/>
      <point x="764.3" y="510.0" type="line" smooth="yes"/>
      <point x="764.3" y="191.07999999999998"/>
      <point x="617.6513333333334" y="-30.0"/>
      <point x="392.93333333333334" y="-30.0" type="curve" smooth="yes"/>
      <point x="173.97733333333332" y="-30.0"/>
      <point x="53.43333333333333" y="147.35199999999998"/>
      <point x="53.43333333333333" y="492.0" type="curve" smooth="yes"/>
      <point x="53.43333333333333" y="519.2666666666667" type="line"/>
      <point x="746.3333333333334" y="519.2666666666667" type="line"/>
      <point x="746.3333333333334" y="468.73333333333335" type="line"/>
      <point x="99.53333333333333" y="468.73333333333335" type="line"/>
      <point x="99.96666666666667" y="461.93333333333334" type="line"/>
      <point x="99.386" y="168.9646666666667"/>
      <point x="206.03066666666663" y="23.099999999999994"/>
      <point x="396.4" y="23.099999999999994" type="curve" smooth="yes"/>
      <point x="606.244" y="23.099999999999994"/>
      <point x="719.0666666666666" y="232.03933333333333"/>
      <point x="719.0666666666666" y="510.0" type="curve" smooth="yes"/>
      <point x="719.0666666666666" y="542.0" type="line" smooth="yes"/>
      <point x="719.0666666666666" y="818.04"/>
      <point x="611.2313333333334" y="1028.9"/>
      <point x="361.5" y="1028.9" type="curve" smooth="yes"/>
      <point x="239.02400000000003" y="1028.9"/>
      <point x="161.49533333333335" y="980.4493333333334"/>
      <point x="95.43333333333334" y="892.3666666666667" type="curve"/>
      <point x="60.0" y="930.0333333333333" type="line"/>
      <point x="119.31733333333334" y="1011.3266666666667"/>
      <point x="214.27866666666665" y="1082.0"/>
      <point x="361.5" y="1082.0" type="curve" smooth="yes"/>
      <point x="622.5766666666667" y="1082.0"/>
      <point x="764.3" y="860.9200000000001"/>
    </contour>
  </outline>
</glyph>
<glyph name="ring" format="2">
  <advance width="1024"/>
  <unicode hex="02DA"/>
  <outline>
    <contour>
      <point x="304.6333333333333" y="1390.4333333333334" type="curve"/>
      <point x="304.6333333333333" y="1509.1126666666667"/>
      <point x="403.51266666666663" y="1609.8666666666666"/>
      <point x="514.8666666666667" y="1609.8666666666666" type="curve" smooth="yes"/>
      <point x="627.3820000000001" y="1609.8666666666666"/>
      <point x="720.8" y="1509.1126666666667"/>
      <point x="720.8" y="1390.4333333333334" type="curve" smooth="yes"/>
      <point x="720.8" y="1270.4139999999998"/>
      <point x="627.3820000000001" y="1173.5666666666666"/>
      <point x="514.8666666666667" y="1173.5666666666666" type="curve" smooth="yes"/>
      <point x="403.51266666666663" y="1173.5666666666666"/>
      <point x="304.6333333333333" y="1270.4139999999998"/>
    </contour>
    <contour>
      <point x="367.3333333333333" y="1390.4333333333334" type="curve"/>
      <point x="367.3333333333333" y="1304.5839999999998"/>
      <point x="436.9233333333333" y="1245.3333333333333"/>
      <point x="514.8666666666667" y="1245.3333333333333" type="curve" smooth="yes"/>
      <point x="594.7306666666667" y="1245.3333333333333"/>
      <point x="656.6666666666666" y="1305.7453333333333"/>
      <point x="656.6666666666666" y="1390.4333333333334" type="curve" smooth="yes"/>
      <point x="656.6666666666666" y="1477.042"/>
      <point x="594.7306666666667" y="1538.5333333333333"/>
      <point x="514.8666666666667" y="1538.5333333333333" type="curve" smooth="yes"/>
      <point x="436.9233333333333" y="1538.5333333333333"/>
      <point x="367.3333333333333" y="1477.042"/>
    </contour>
  </outline>
</glyph>
<glyph name="Psi" format="2">
  <advance width="1580"/>
  <unicode hex="03A8"/>
  <outline>
    <contour>
      <point x="761.5" y="0.0" type="line"/>
      <point x="761.5" y="1456.0" type="line"/>
      <point x="818.9333333333334" y="1456.0" type="line"/>
      <point x="818.9333333333334" y="0.0" type="line"/>
    </contour>
    <contour>
      <point x="782.6666666666666" y="361.0" type="line"/>
      <point x="773.3333333333334" y="361.0" type="line" smooth="yes"/>
      <point x="319.07333333333327" y="361.0"/>
      <point x="155.0" y="535.38"/>
      <point x="155.0" y="928.0" type="curve" smooth="yes"/>
      <point x="155.0" y="1456.0" type="line"/>
      <point x="210.83333333333334" y="1456.0" type="line"/>
      <point x="210.83333333333334" y="926.0" type="line" smooth="yes"/>
      <point x="210.83333333333334" y="580.28"/>
      <point x="330.8653333333333" y="421.5333333333333"/>
      <point x="773.3333333333334" y="421.5333333333333" type="curve" smooth="yes"/>
      <point x="782.6666666666666" y="421.5333333333333" type="line"/>
    </contour>
    <contour>
      <point x="797.7666666666667" y="361.0" type="line"/>
      <point x="797.7666666666667" y="421.5333333333333" type="line"/>
      <point x="805.8" y="421.5333333333333" type="line" smooth="yes"/>
      <point x="1248.8486666666668" y="421.5333333333333"/>
      <point x="1369.6" y="580.28"/>
      <point x="1369.6" y="926.0" type="curve" smooth="yes"/>
      <point x="1369.6" y="1456.0" type="line"/>
      <point x="1425.4333333333334" y="1456.0" type="line"/>
      <point x="1425.4333333333334" y="928.0" type="line" smooth="yes"/>
      <point x="1425.4333333333334" y="535.38"/>
      <point x="1261.36" y="361.0"/>
      <point x="807.1" y="361.0" type="curve" smooth="yes"/>
    </contour>
  </outline>
</glyph>
<glyph name="beta" format="2">
  <advance width="1169"/>
  <unicode hex="03B2"/>
  <outline>
    <contour>
      <point x="148" y="-416" type="line"/>
      <point x="148" y="1058" type="line" smooth="yes"/>
      <point x="148" y="1397"/>
      <point x="325" y="1556"/>
      <point x="585" y="1556" type="curve" smooth="yes"/>
      <point x="841" y="1556"/>
      <point x="997" y="1408"/>
      <point x="997" y="1192" type="curve"/>
      <point x="997" y="985"/>
      <point x="863" y="854"/>
      <point x="703" y="833" type="curve"/>
      <point x="703" y="841" type="line"/>
      <point x="942" y="823"/>
      <point x="1082" y="667"/>
      <point x="1082" y="439" type="curve"/>
      <point x="1082" y="157"/>
      <point x="885" y="-20"/>
      <point x="620" y="-20" type="curve" smooth="yes"/>
      <point x="436" y="-20"/>
      <point x="306" y="38"/>
      <point x="204" y="146" type="curve"/>
      <point x="204" y="-416" type="line"/>
    </contour>
    <contour>
      <point x="629" y="39" type="curve" smooth="yes"/>
      <point x="887" y="39"/>
      <point x="1025" y="192"/>
      <point x="1025" y="438" type="curve"/>
      <point x="1025" y="702"/>
      <point x="860" y="809"/>
      <point x="589" y="809" type="curve"/>
      <point x="442" y="809" type="line"/>
      <point x="442" y="867" type="line"/>
      <point x="590" y="867" type="line"/>
      <point x="792" y="867"/>
      <point x="947" y="952"/>
      <point x="947" y="1191" type="curve"/>
      <point x="947" y="1381"/>
      <point x="835" y="1503"/>
      <point x="585" y="1503" type="curve" smooth="yes"/>
      <point x="332" y="1503"/>
      <point x="204" y="1344"/>
      <point x="204" y="1065" type="curve" smooth="yes"/>
      <point x="204" y="241" type="line"/>
      <point x="241" y="170"/>
      <point x="373" y="39"/>
    </contour>
  </outline>
</glyph>
<glyph name="gamma" format="2">
  <advance width="1051"/>
  <unicode hex="03B3"/>
  <outline>
    <contour>
      <point x="498" y="-366.0" type="line"/>
      <point x="498" y="-17" type="line"/>
      <point x="0.0" y="1076.857142857143" type="line"/>
      <point x="75.36666666666666" y="1076.857142857143" type="line"/>
      <point x="464" y="191" type="line" smooth="yes"/>
      <point x="509" y="89"/>
      <point x="516" y="74"/>
      <point x="521" y="44" type="curve"/>
      <point x="528" y="44" type="line"/>
      <point x="536" y="74"/>
      <point x="554.7539047619048" y="123.69514285714284"/>
      <point x="586.6714285714286" y="192.94761904761904" type="curve" smooth="yes"/>
      <point x="978.1333333333333" y="1076.857142857143" type="line"/>
      <point x="1050.9333333333334" y="1076.857142857143" type="line"/>
      <point x="553" y="-17" type="line"/>
      <point x="553" y="-366.0" type="line"/>
    </contour>
  </outline>
</glyph>
<glyph name="delta" format="2">
  <advance width="1132"/>
  <unicode hex="03B4"/>
  <outline>
    <contour>
      <point x="560" y="-30" type="curve" smooth="yes"/>
      <point x="856" y="-30"/>
      <point x="1046" y="160"/>
      <point x="1046" y="471" type="curve"/>
      <point x="1046" y="477" type="line"/>
      <point x="1046" y="750"/>
      <point x="885" y="882"/>
      <point x="653" y="1001" type="curve" smooth="yes"/>
      <point x="374" y="1143"/>
      <point x="332" y="1208"/>
      <point x="332" y="1305" type="curve" smooth="yes"/>
      <point x="332" y="1391"/>
      <point x="387" y="1499"/>
      <point x="622" y="1499" type="curve"/>
      <point x="758" y="1499"/>
      <point x="862" y="1467"/>
      <point x="927" y="1422" type="curve"/>
      <point x="947" y="1476" type="line"/>
      <point x="863" y="1530"/>
      <point x="746" y="1556"/>
      <point x="623" y="1556" type="curve"/>
      <point x="413" y="1556"/>
      <point x="275" y="1462"/>
      <point x="275" y="1304" type="curve"/>
      <point x="275" y="1193"/>
      <point x="329" y="1107"/>
      <point x="631" y="962" type="curve" smooth="yes"/>
      <point x="915" y="826"/>
      <point x="991" y="669"/>
      <point x="991" y="477" type="curve"/>
      <point x="991" y="465" type="line"/>
      <point x="991" y="177"/>
      <point x="826" y="29"/>
      <point x="566" y="29" type="curve" smooth="yes"/>
      <point x="286" y="29"/>
      <point x="140" y="212"/>
      <point x="140" y="466" type="curve"/>
      <point x="140" y="484" type="line"/>
      <point x="140" y="745"/>
      <point x="322" y="943"/>
      <point x="643" y="979" type="curve"/>
      <point x="574" y="1018" type="line"/>
      <point x="245" y="952"/>
      <point x="85" y="753"/>
      <point x="85" y="490" type="curve"/>
      <point x="85" y="464" type="line"/>
      <point x="85" y="172"/>
      <point x="275" y="-30"/>
    </contour>
  </outline>
</glyph>
<glyph name="epsilon" format="2">
  <advance width="961"/>
  <unicode hex="03B5"/>
  <anchor x="549" y="1077" name="GRK_top"/>
  <outline>
    <contour>
      <point x="493" y="-30" type="curve"/>
      <point x="221" y="-30"/>
      <point x="75" y="97"/>
      <point x="75" y="274" type="curve"/>
      <point x="75" y="442"/>
      <point x="159" y="532"/>
      <point x="346" y="549" type="curve"/>
      <point x="346" y="526" type="line"/>
      <point x="197" y="550"/>
      <point x="113" y="652"/>
      <point x="113" y="787" type="curve" smooth="yes"/>
      <point x="113" y="997"/>
      <point x="274" y="1107"/>
      <point x="536" y="1107" type="curve" smooth="yes"/>
      <point x="838" y="1107"/>
      <point x="963" y="951"/>
      <point x="963" y="729" type="curve"/>
      <point x="911" y="729" type="line"/>
      <point x="914" y="918"/>
      <point x="806" y="1049"/>
      <point x="536" y="1049" type="curve" smooth="yes"/>
      <point x="236" y="1049"/>
      <point x="166" y="915"/>
      <point x="166" y="789" type="curve" smooth="yes"/>
      <point x="166" y="652"/>
      <point x="263" y="576"/>
      <point x="375" y="576" type="curve"/>
      <point x="679" y="576" type="line"/>
      <point x="679" y="511" type="line"/>
      <point x="375" y="511" type="line" smooth="yes"/>
      <point x="223" y="511"/>
      <point x="129" y="436"/>
      <point x="129" y="273" type="curve"/>
      <point x="129" y="116"/>
      <point x="241" y="28"/>
      <point x="489" y="28" type="curve"/>
      <point x="761" y="28"/>
      <point x="907" y="112"/>
      <point x="912" y="348" type="curve"/>
      <point x="963" y="348" type="line"/>
      <point x="960" y="114"/>
      <point x="815" y="-30"/>
    </contour>
  </outline>
</glyph>
<glyph name="upsilon" format="2">
  <advance width="1078"/>
  <unicode hex="03C5"/>
  <anchor x="544.0" y="1077" name="GRK_top"/>
  <outline>
    <contour>
      <point x="544.0" y="-20.0" type="curve" smooth="yes"/>
      <point x="301.0" y="-20.0"/>
      <point x="138.0" y="77"/>
      <point x="138.0" y="403.0" type="curve" smooth="yes"/>
      <point x="138.0" y="1077" type="line"/>
      <point x="193.0" y="1077" type="line"/>
      <point x="193.0" y="401.0" type="line" smooth="yes"/>
      <point x="193.0" y="130.0"/>
      <point x="295.0" y="37"/>
      <point x="544.0" y="37" type="curve" smooth="yes"/>
      <point x="793.0" y="37"/>
      <point x="894.0" y="130"/>
      <point x="894.0" y="401.0" type="curve" smooth="yes"/>
      <point x="894.0" y="1077" type="line"/>
      <point x="950.0" y="1077" type="line"/>
      <point x="950.0" y="403.0" type="line" smooth="yes"/>
      <point x="950.0" y="77"/>
      <point x="787.0" y="-20.0"/>
    </contour>
  </outline>
</glyph>
<glyph name="omega" format="2">
  <advance width="1561"/>
  <unicode hex="03C9"/>
  <anchor x="781" y="1077" name="GRK_top"/>
  <outline>
    <contour>
      <point x="471.0" y="-30.0" type="curve" smooth="yes"/>
      <point x="223.0" y="-30.0"/>
      <point x="97.0" y="173"/>
      <point x="97.0" y="471" type="curve"/>
      <point x="97.0" y="732"/>
      <point x="195.0" y="945"/>
      <point x="307.0" y="1077" type="curve"/>
      <point x="380.0" y="1077" type="line"/>
      <point x="285.0" y="973"/>
      <point x="152.0" y="771"/>
      <point x="152.0" y="469" type="curve"/>
      <point x="152.0" y="213"/>
      <point x="256.0" y="28"/>
      <point x="469.0" y="28" type="curve"/>
      <point x="659.0" y="28"/>
      <point x="752.0" y="139"/>
      <point x="752.0" y="408.0" type="curve" smooth="yes"/>
      <point x="752.0" y="740" type="line"/>
      <point x="809.0" y="740" type="line"/>
      <point x="809.0" y="408.0" type="line" smooth="yes"/>
      <point x="809.0" y="139"/>
      <point x="903.0" y="28"/>
      <point x="1093.0" y="28" type="curve"/>
      <point x="1305.0" y="28"/>
      <point x="1410.0" y="213"/>
      <point x="1410.0" y="469" type="curve"/>
      <point x="1410.0" y="771"/>
      <point x="1277.0" y="973"/>
      <point x="1182.0" y="1077" type="curve"/>
      <point x="1255.0" y="1077" type="line"/>
      <point x="1366.0" y="945"/>
      <point x="1464.0" y="732"/>
      <point x="1464.0" y="471" type="curve"/>
      <point x="1464.0" y="173"/>
      <point x="1338.0" y="-30.0"/>
      <point x="1091.0" y="-30.0" type="curve" smooth="yes"/>
      <point x="918.0" y="-30"/>
      <point x="808.0" y="57"/>
      <point x="776.0" y="224" type="curve"/>
      <point x="785.0" y="224" type="line"/>
      <point x="754.0" y="57"/>
      <point x="643.0" y="-30"/>
    </contour>
  </outline>
</glyph>
<glyph name="Dje" format="2">
  <advance width="1630"/>
  <unicode hex="0402"/>
  <guideline x="568.0" y="625.0" angle="90.0" identifier="YDADns81zF"/>
  <outline>
    <contour>
      <point x="523.6" y="0.0" type="line"/>
      <point x="523.6" y="1398.3333333333333" type="line"/>
      <point x="24.0" y="1398.3333333333333" type="line"/>
      <point x="24.0" y="1456.0" type="line"/>
      <point x="1117.6" y="1456.0" type="line"/>
      <point x="1117.6" y="1398.3333333333333" type="line"/>
      <point x="578.0" y="1398.3333333333333" type="line"/>
      <point x="578.0" y="0.0" type="line"/>
    </contour>
    <contour>
      <point x="1107.0" y="0.0" type="line"/>
      <point x="1107.0" y="47.26666666666665" type="line"/>
      <point x="1115.0" y="47.26666666666665" type="line" smooth="yes"/>
      <point x="1312.5606666666667" y="47.26666666666665"/>
      <point x="1419.3333333333333" y="151.01633869240862"/>
      <point x="1419.3333333333333" y="407.0" type="curve" smooth="yes"/>
      <point x="1419.3333333333333" y="425.8666666666667" type="line" smooth="yes"/>
      <point x="1419.3333333333333" y="699.182"/>
      <point x="1254.738" y="792.3333333333334"/>
      <point x="983.5666666666667" y="792.3333333333334" type="curve" smooth="yes"/>
      <point x="789.026197064969" y="792.3333333333334"/>
      <point x="688.8646666666667" y="772.6500000000001"/>
      <point x="550.8" y="733.5666666666666" type="curve"/>
      <point x="550.8" y="792.6666666666666" type="line"/>
      <point x="691.3660000000001" y="827.9086666666667"/>
      <point x="768.7606344410754" y="850.0"/>
      <point x="979.3666666666667" y="850.0" type="curve" smooth="yes"/>
      <point x="1291.0953333333334" y="850.0"/>
      <point x="1475.1666666666667" y="742.6286666666667"/>
      <point x="1475.1666666666667" y="421.96666666666664" type="curve" smooth="yes"/>
      <point x="1475.1666666666667" y="407.56666666666666" type="line" smooth="yes"/>
      <point x="1475.1666666666667" y="111.02466666666663"/>
      <point x="1340.5666666666666" y="0.0"/>
      <point x="1115.0" y="0.0" type="curve" smooth="yes"/>
    </contour>
  </outline>
</glyph>
<glyph name="Be" format="2">
  <advance width="1140"/>
  <unicode hex="0411"/>
  <outline>
    <contour>
      <point x="170.0" y="0.0" type="line"/>
      <point x="170.0" y="1456.0" type="line"/>
      <point x="966.0" y="1456.0" type="line"/>
      <point x="966.0" y="1398.3333333333333" type="line"/>
      <point x="225.83333333333334" y="1398.3333333333333" type="line"/>
      <point x="225.83333333333334" y="837.3333333333334" type="line"/>
      <point x="601.8333333333334" y="837.3333333333334" type="line" smooth="yes"/>
      <point x="909.9886666666666" y="837.3333333333334"/>
      <point x="1053.9666666666667" y="673.8253333333333"/>
      <point x="1053.9666666666667" y="416.3666666666667" type="curve" smooth="yes"/>
      <point x="1053.9666666666667" y="159.48866666666663"/>
      <point x="909.9886666666666" y="0.0"/>
      <point x="601.8333333333334" y="0.0" type="curve" smooth="yes"/>
    </contour>
    <contour>
      <point x="225.83333333333334" y="779.6666666666666" type="line"/>
      <point x="225.83333333333334" y="57.66666666666667" type="line"/>
      <point x="601.8333333333334" y="57.66666666666667" type="line" smooth="yes"/>
      <point x="896.8566666666667" y="57.66666666666667"/>
      <point x="998.1333333333333" y="195.62399999999997"/>
      <point x="998.1333333333333" y="416.3666666666667" type="curve" smooth="yes"/>
      <point x="998.1333333333333" y="639.03"/>
      <point x="896.8566666666667" y="779.6666666666666"/>
      <point x="601.8333333333334" y="779.6666666666666" type="curve" smooth="yes"/>
    </contour>
  </outline>
</glyph>
<glyph name="Soft" format="2">
  <advance width="1104"/>
  <unicode hex="042C"/>
  <outline>
    <contour>
      <point x="170.0" y="1456.0" type="line"/>
      <point x="170.0" y="0.0" type="line"/>
      <point x="601.8333333333334" y="0.0" type="line" smooth="yes"/>
      <point x="909.9886666666666" y="0.0"/>
      <point x="1053.9666666666667" y="161.6412459016645"/>
      <point x="1053.9666666666667" y="426.3666666666667" type="curve" smooth="yes"/>
      <point x="1053.9666666666667" y="690.013753894056"/>
      <point x="909.9929046178588" y="857.3333333333334"/>
      <point x="601.8333333333334" y="857.3333333333334" type="curve" smooth="yes"/>
      <point x="225.83333333333334" y="857.3333333333334" type="line"/>
      <point x="225.83333333333334" y="1456.0" type="line"/>
    </contour>
    <contour>
      <point x="225.83333333333334" y="799.6666666666666" type="line"/>
      <point x="601.8333333333334" y="799.6666666666666" type="line" smooth="yes"/>
      <point x="896.8566666666667" y="799.6666666666666"/>
      <point x="998.1333333333333" y="653.7799058823981"/>
      <point x="998.1333333333333" y="426.3666666666667" type="curve" smooth="yes"/>
      <point x="998.1333333333333" y="199.79941396264425"/>
      <point x="896.8566666666667" y="57.66666666666667"/>
      <point x="601.8333333333334" y="57.66666666666667" type="curve" smooth="yes"/>
      <point x="225.83333333333334" y="57.66666666666667" type="line"/>
    </contour>
  </outline>
</glyph>
<glyph name="Ecyr" format="2">
  <advance width="1213"/>
  <unicode hex="042D"/>
  <guideline x="1147.0" y="753.0" angle="90.0" identifier="Ovo68woMtl"/>
  <outline>
    <contour>
      <point x="1069.6" y="779.8333333333334" type="line"/>
      <point x="1069.6" y="722.1666666666666" type="line"/>
      <point x="395.4" y="722.1666666666666" type="line"/>
      <point x="395.4" y="779.8333333333334" type="line"/>
    </contour>
    <contour>
      <point x="1041.4" y="706.9666666666667" type="curve" smooth="yes"/>
      <point x="1041.4" y="742.5333333333333" type="line" smooth="yes"/>
      <point x="1041.4" y="1193.6666666666667"/>
      <point x="825.1853333333333" y="1428.0666666666666"/>
      <point x="522.1666666666666" y="1428.0666666666666" type="curve" smooth="yes"/>
      <point x="212.76066666666662" y="1428.0666666666666"/>
      <point x="75.33333333333334" y="1287.099333333333"/>
      <point x="75.33333333333334" y="1025.9333333333334" type="curve" smooth="yes"/>
      <point x="75.33333333333334" y="1017.2333333333333" type="line"/>
      <point x="19.5" y="1017.2333333333333" type="line"/>
      <point x="19.5" y="1025.9333333333334" type="line" smooth="yes"/>
      <point x="19.5" y="1296.5686666666668"/>
      <point x="198.55666666666667" y="1486.0"/>
      <point x="522.1666666666666" y="1486.0" type="curve" smooth="yes"/>
      <point x="848.8140000000001" y="1486.0"/>
      <point x="1097.8" y="1247.8653333333332"/>
      <point x="1097.8" y="743.4" type="curve" smooth="yes"/>
      <point x="1097.8" y="692.6666666666666" type="line" smooth="yes"/>
      <point x="1097.8" y="233.00199999999995"/>
      <point x="852.1786666666667" y="-30.0"/>
      <point x="521.4666666666667" y="-30.0" type="curve" smooth="yes"/>
      <point x="196.11466666666666" y="-30.0"/>
      <point x="2.299999999999997" y="152.31804353743865"/>
      <point x="2.299999999999997" y="426.6" type="curve" smooth="yes"/>
      <point x="2.299999999999997" y="438.76666666666665" type="line"/>
      <point x="58.133333333333326" y="438.76666666666665" type="line"/>
      <point x="58.133333333333326" y="426.6" type="line" smooth="yes"/>
      <point x="58.133333333333326" y="237.43666666666664"/>
      <point x="203.2613333333333" y="27.933333333333337"/>
      <point x="521.4666666666667" y="27.933333333333337" type="curve" smooth="yes"/>
      <point x="810.5493333333334" y="27.933333333333337"/>
      <point x="1041.4" y="285.31333333333333"/>
    </contour>
  </outline>
</glyph>
<glyph name="be" format="2">
  <advance width="1161"/>
  <unicode hex="0431"/>
  <outline>
    <contour>
      <point x="150.26666666666665" y="550.6666666666666" type="curve" smooth="yes"/>
      <point x="150.26666666666665" y="518.6666666666666" type="line" smooth="yes"/>
      <point x="150.26666666666665" y="230.29866666666663"/>
      <point x="298.998" y="28.83333333333333"/>
      <point x="585.2666666666667" y="28.83333333333333" type="curve" smooth="yes"/>
      <point x="871.5353333333333" y="28.83333333333333"/>
      <point x="1020.2666666666667" y="230.29866666666663"/>
      <point x="1020.2666666666667" y="518.6666666666666" type="curve" smooth="yes"/>
      <point x="1020.2666666666667" y="550.6666666666666" type="line" smooth="yes"/>
      <point x="1020.2666666666667" y="839.0346666666667"/>
      <point x="871.5353333333333" y="1040.5"/>
      <point x="585.2666666666667" y="1040.5" type="curve" smooth="yes"/>
      <point x="298.998" y="1040.5"/>
      <point x="150.26666666666665" y="839.0346666666667"/>
    </contour>
    <contour>
      <point x="565.3333333333334" y="1099.3333333333333" type="curve" smooth="yes"/>
      <point x="874.2033333333334" y="1099.3333333333333"/>
      <point x="1075.5333333333333" y="878.2966666666666"/>
      <point x="1075.5333333333333" y="550.6666666666666" type="curve" smooth="yes"/>
      <point x="1075.5333333333333" y="518.6666666666666" type="line" smooth="yes"/>
      <point x="1075.5333333333333" y="194.5206666666666"/>
      <point x="884.2653333333333" y="-30.0"/>
      <point x="585.2666666666667" y="-30.0" type="curve" smooth="yes"/>
      <point x="312.04066666666665" y="-30.0"/>
      <point x="95.0" y="155.6353333333334"/>
      <point x="95.0" y="550.5333333333333" type="curve" smooth="yes"/>
      <point x="95.0" y="599.4666666666667" type="line" smooth="yes"/>
      <point x="95.0" y="1186.6993333333335"/>
      <point x="228.9493333333333" y="1397.286"/>
      <point x="681.3333333333334" y="1447.0" type="curve" smooth="yes"/>
      <point x="906.113580779038" y="1472.1083767290218"/>
      <point x="904.6300820484488" y="1498.6424102422443"/>
      <point x="911.3333333333334" y="1536.0" type="curve"/>
      <point x="972.1333333333333" y="1536.0" type="line"/>
      <point x="963.1553333333334" y="1447.1580000000001"/>
      <point x="903.1146666666666" y="1407.099333333333"/>
      <point x="688.0" y="1389.3666666666668" type="curve" smooth="yes"/>
      <point x="271.969293012424" y="1351.4886196448756"/>
      <point x="177.6417859371188" y="1172.0126033963834"/>
      <point x="151.0" y="801.0" type="curve"/>
      <point x="162.0" y="801.0" type="line"/>
      <point x="243.204" y="1027.9066666666668"/>
      <point x="366.388" y="1099.3333333333333"/>
    </contour>
  </outline>
</glyph>
<glyph name="ve" format="2">
  <advance width="1025"/>
  <unicode hex="0432"/>
  <outline>
    <contour>
      <point x="148.0" y="0.0" type="line"/>
      <point x="148.0" y="1052.0" type="line"/>
      <point x="607.7333333333333" y="1052.0" type="line" smooth="yes"/>
      <point x="776.9306666666666" y="1052.0"/>
      <point x="883.4" y="954.6366666666667"/>
      <point x="883.4" y="775.3" type="curve" smooth="yes"/>
      <point x="883.4" y="648.3573333333334"/>
      <point x="807.374914958446" y="561.7708395229791"/>
      <point x="730.4" y="544.0" type="curve"/>
      <point x="730.4" y="541.0" type="line"/>
      <point x="845.7293333333334" y="523.4013333333334"/>
      <point x="929.0" y="425.03666666666663"/>
      <point x="929.0" y="306.0" type="curve" smooth="yes"/>
      <point x="929.0" y="111.69999999999999"/>
      <point x="820.5333333333334" y="0.0"/>
      <point x="646.3333333333334" y="0.0" type="curve" smooth="yes"/>
    </contour>
    <contour>
      <point x="202.13333333333333" y="56.133333333333326" type="line"/>
      <point x="646.3333333333334" y="56.133333333333326" type="line" smooth="yes"/>
      <point x="798.9593333333333" y="56.133333333333326"/>
      <point x="871.0" y="149.97933333333333"/>
      <point x="871.0" y="306.0" type="curve" smooth="yes"/>
      <point x="871.0" y="426.10866666666664"/>
      <point x="790.696" y="507.43333333333334"/>
      <point x="646.3333333333334" y="507.43333333333334" type="curve" smooth="yes"/>
      <point x="202.13333333333333" y="507.43333333333334" type="line"/>
    </contour>
    <contour>
      <point x="202.13333333333333" y="562.5666666666666" type="line"/>
      <point x="607.7333333333333" y="562.5666666666666" type="line" smooth="yes"/>
      <point x="762.8606666666667" y="562.5666666666666"/>
      <point x="824.4" y="636.4766666666666"/>
      <point x="824.4" y="779.6333333333333" type="curve" smooth="yes"/>
      <point x="824.4" y="909.926"/>
      <point x="763.8353333333333" y="995.8666666666667"/>
      <point x="604.8666666666667" y="995.8666666666667" type="curve" smooth="yes"/>
      <point x="202.13333333333333" y="995.8666666666667" type="line"/>
    </contour>
  </outline>
</glyph>
<glyph name="ze" format="2">
  <advance width="923"/>
  <unicode hex="0437"/>
  <outline>
    <contour>
      <point x="435.23333333333335" y="-30.0" type="curve" smooth="yes"/>
      <point x="206.0964449438091" y="-30.0"/>
      <point x="33.1" y="98.08666666666664"/>
      <point x="33.1" y="324.1" type="curve" smooth="yes"/>
      <point x="33.1" y="329.1" type="line"/>
      <point x="85.53333333333333" y="329.1" type="line"/>
      <point x="85.53333333333333" y="324.1" type="line" smooth="yes"/>
      <point x="85.53333333333333" y="152.178"/>
      <point x="209.22644862154252" y="27.400000000000006"/>
      <point x="434.8" y="27.400000000000006" type="curve" smooth="yes"/>
      <point x="666.5099467680562" y="27.400000000000006"/>
      <point x="769.3333333333334" y="140.218"/>
      <point x="769.3333333333334" y="281.76666666666665" type="curve" smooth="yes"/>
      <point x="769.3333333333334" y="433.18666666666667"/>
      <point x="680.5153333333333" y="507.43333333333334"/>
      <point x="518.8666666666667" y="507.43333333333334" type="curve" smooth="yes"/>
      <point x="323.8333333333333" y="507.43333333333334" type="line"/>
      <point x="323.8333333333333" y="562.5666666666666" type="line"/>
      <point x="480.26666666666665" y="562.5666666666666" type="line" smooth="yes"/>
      <point x="659.2639186771676" y="562.5666666666666"/>
      <point x="729.1666666666666" y="636.4766666666666"/>
      <point x="729.1666666666666" y="779.6333333333333" type="curve" smooth="yes"/>
      <point x="729.1666666666666" y="924.666"/>
      <point x="658.3573333333334" y="1024.6"/>
      <point x="452.5333333333333" y="1024.6" type="curve" smooth="yes"/>
      <point x="241.63945396818076" y="1024.6"/>
      <point x="122.73333333333332" y="919.8625429829583"/>
      <point x="122.73333333333332" y="727.9" type="curve" smooth="yes"/>
      <point x="122.73333333333332" y="722.9" type="line"/>
      <point x="70.3" y="722.9" type="line"/>
      <point x="70.3" y="727.9" type="line" smooth="yes"/>
      <point x="70.3" y="961.2833333333334"/>
      <point x="236.43599999999998" y="1082.0"/>
      <point x="452.5333333333333" y="1082.0" type="curve" smooth="yes"/>
      <point x="645.6273333333334" y="1082.0"/>
      <point x="788.1666666666666" y="974.178"/>
      <point x="788.1666666666666" y="773.1333333333333" type="curve" smooth="yes"/>
      <point x="788.1666666666666" y="641.5453333333332"/>
      <point x="702.6614889291702" y="564.5104759833334"/>
      <point x="616.4" y="544.0" type="curve"/>
      <point x="616.4" y="541.0" type="line"/>
      <point x="718.8824195513264" y="525.319468708452"/>
      <point x="827.3333333333334" y="456.596"/>
      <point x="827.3333333333334" y="283.2" type="curve" smooth="yes"/>
      <point x="827.3333333333334" y="101.85333333333332"/>
      <point x="680.5773303769233" y="-30.0"/>
    </contour>
  </outline>
</glyph>
<glyph name="icyr" format="2">
  <advance width="1104"/>
  <unicode hex="0438"/>
  <outline>
    <contour>
      <point x="202.13333333333333" y="188.0" type="line" smooth="yes"/>
      <point x="202.13333333333333" y="147.8"/>
      <point x="201.47333333333333" y="93.2"/>
      <point x="200.13333333333333" y="53.0" type="curve"/>
      <point x="207.13333333333333" y="53.0" type="line"/>
      <point x="225.89333333333332" y="86.5"/>
      <point x="247.75266666666664" y="130.30133333333333"/>
      <point x="275.1333333333333" y="168.0" type="curve" smooth="yes"/>
      <point x="884.2" y="1052.0" type="line"/>
      <point x="955.5333333333333" y="1052.0" type="line"/>
      <point x="955.5333333333333" y="0.0" type="line"/>
      <point x="901.4" y="0.0" type="line"/>
      <point x="901.4" y="864.4333333333334" type="line" smooth="yes"/>
      <point x="901.4" y="904.6333333333334"/>
      <point x="902.06" y="959.2333333333333"/>
      <point x="903.4" y="999.4333333333334" type="curve"/>
      <point x="896.4" y="999.4333333333334" type="line"/>
      <point x="877.64" y="965.9333333333334"/>
      <point x="857.7013333333333" y="925.9733333333334"/>
      <point x="828.4" y="884.4333333333334" type="curve" smooth="yes"/>
      <point x="219.33333333333331" y="0.0" type="line"/>
      <point x="148.0" y="0.0" type="line"/>
      <point x="148.0" y="1052.0" type="line"/>
      <point x="202.13333333333333" y="1052.0" type="line"/>
    </contour>
  </outline>
</glyph>
<glyph name="el" format="2">
  <advance width="1074"/>
  <unicode hex="043B"/>
  <outline>
    <contour>
      <point x="307.93333333333334" y="995.8666666666667" type="line"/>
      <point x="278.4666666666667" y="428.3666666666667" type="line" smooth="yes"/>
      <point x="262.85592047390924" y="133.57691618247372"/>
      <point x="229.00478287458077" y="-16.266666666666666"/>
      <point x="82.73333333333333" y="-16.266666666666666" type="curve" smooth="yes"/>
      <point x="50.617999999999995" y="-16.266666666666666"/>
      <point x="35.46" y="-10.326666666666668"/>
      <point x="10.0" y="1.7333333333333334" type="curve"/>
      <point x="10.0" y="60.266666666666666" type="line"/>
      <point x="34.70066666666666" y="52.80733333333334"/>
      <point x="47.404" y="44.400000000000006"/>
      <point x="84.56666666666666" y="44.400000000000006" type="curve" smooth="yes"/>
      <point x="200.02999999999997" y="44.400000000000006"/>
      <point x="212.50666666666666" y="221.1633333333333"/>
      <point x="224.56666666666666" y="422.8333333333333" type="curve" smooth="yes"/>
      <point x="257.6" y="1052.0" type="line"/>
      <point x="926.8333333333334" y="1052.0" type="line"/>
      <point x="926.8333333333334" y="0.0" type="line"/>
      <point x="872.7" y="0.0" type="line"/>
      <point x="872.7" y="995.8666666666667" type="line"/>
    </contour>
  </outline>
</glyph>
<glyph name="hard" format="2">
  <advance width="1193"/>
  <unicode hex="044A"/>
  <outline>
    <contour>
      <point x="58.66666666666667" y="995.8666666666667" type="line"/>
      <point x="58.66666666666667" y="1052.0" type="line"/>
      <point x="389.9" y="1052.0" type="line"/>
      <point x="389.9" y="663.3333333333334" type="line"/>
      <point x="720.7666666666667" y="663.3333333333334" type="line" smooth="yes"/>
      <point x="966.8799999999999" y="663.3333333333334"/>
      <point x="1104.1" y="535.7833333333333"/>
      <point x="1104.1" y="333.6666666666667" type="curve" smooth="yes"/>
      <point x="1104.1" y="131.54999999999998"/>
      <point x="966.8799999999999" y="0.0"/>
      <point x="720.7666666666667" y="0.0" type="curve" smooth="yes"/>
      <point x="335.76666666666665" y="0.0" type="line"/>
      <point x="335.76666666666665" y="995.8666666666667" type="line"/>
    </contour>
    <contour>
      <point x="720.7666666666667" y="607.2" type="curve" smooth="yes"/>
      <point x="389.9" y="607.2" type="line"/>
      <point x="389.9" y="56.133333333333326" type="line"/>
      <point x="720.7666666666667" y="56.133333333333326" type="line" smooth="yes"/>
      <point x="955.49" y="56.133333333333326"/>
      <point x="1044.2333333333333" y="171.5713333333333"/>
      <point x="1044.2333333333333" y="333.6666666666667" type="curve" smooth="yes"/>
      <point x="1044.2333333333333" y="494.422"/>
      <point x="955.49" y="607.2"/>
    </contour>
  </outline>
</glyph>
<glyph name="soft" format="2">
  <advance width="1005"/>
  <unicode hex="044C"/>
  <outline>
    <contour>
      <point x="202.13333333333333" y="1052.0" type="line"/>
      <point x="202.13333333333333" y="663.3333333333334" type="line"/>
      <point x="533.0" y="663.3333333333334" type="line" smooth="yes"/>
      <point x="779.1133333333332" y="663.3333333333334"/>
      <point x="916.3333333333334" y="535.7833333333333"/>
      <point x="916.3333333333334" y="333.6666666666667" type="curve" smooth="yes"/>
      <point x="916.3333333333334" y="131.54999999999998"/>
      <point x="779.1133333333332" y="0.0"/>
      <point x="533.0" y="0.0" type="curve" smooth="yes"/>
      <point x="148.0" y="0.0" type="line"/>
      <point x="148.0" y="1052.0" type="line"/>
    </contour>
    <contour>
      <point x="533.0" y="607.2" type="curve" smooth="yes"/>
      <point x="202.13333333333333" y="607.2" type="line"/>
      <point x="202.13333333333333" y="56.133333333333326" type="line"/>
      <point x="533.0" y="56.133333333333326" type="line" smooth="yes"/>
      <point x="767.7233333333334" y="56.133333333333326"/>
      <point x="856.4666666666667" y="171.5713333333333"/>
      <point x="856.4666666666667" y="333.6666666666667" type="curve" smooth="yes"/>
      <point x="856.4666666666667" y="494.422"/>
      <point x="767.7233333333334" y="607.2"/>
    </contour>
  </outline>
</glyph>
<glyph name="yu" format="2">
  <advance width="1560"/>
  <unicode hex="044E"/>
  <guideline x="645.0" y="487.0" angle="90.0" identifier="5WLHpa9SA0"/>
  <outline>
    <contour>
      <point x="148.0" y="1052.0" type="line"/>
      <point x="202.13333333333333" y="1052.0" type="line"/>
      <point x="202.13333333333333" y="562.7" type="line"/>
      <point x="527.0333333333333" y="562.7" type="line"/>
      <point x="527.0333333333333" y="506.56666666666666" type="line"/>
      <point x="202.13333333333333" y="506.56666666666666" type="line"/>
      <point x="202.13333333333333" y="0.0" type="line"/>
      <point x="148.0" y="0.0" type="line"/>
    </contour>
    <contour>
      <point x="499.8333333333333" y="510.0" type="curve" smooth="yes"/>
      <point x="499.8333333333333" y="542.0" type="line" smooth="yes"/>
      <point x="499.8333333333333" y="860.9200000000001"/>
      <point x="689.7866666666666" y="1082.0"/>
      <point x="987.2666666666667" y="1082.0" type="curve" smooth="yes"/>
      <point x="1284.7466666666667" y="1082.0"/>
      <point x="1474.7" y="860.9200000000001"/>
      <point x="1474.7" y="542.0" type="curve" smooth="yes"/>
      <point x="1474.7" y="510.0" type="line" smooth="yes"/>
      <point x="1474.7" y="191.07999999999998"/>
      <point x="1284.7466666666667" y="-30.0"/>
      <point x="987.2666666666667" y="-30.0" type="curve" smooth="yes"/>
      <point x="689.7866666666666" y="-30.0"/>
      <point x="499.8333333333333" y="191.07999999999998"/>
    </contour>
    <contour>
      <point x="555.1" y="542.0" type="curve" smooth="yes"/>
      <point x="555.1" y="510.0" type="line" smooth="yes"/>
      <point x="555.1" y="226.27733333333327"/>
      <point x="702.5166666666667" y="28.83333333333333"/>
      <point x="987.2666666666667" y="28.83333333333333" type="curve" smooth="yes"/>
      <point x="1272.0166666666667" y="28.83333333333333"/>
      <point x="1419.4333333333334" y="226.27733333333327"/>
      <point x="1419.4333333333334" y="510.0" type="curve" smooth="yes"/>
      <point x="1419.4333333333334" y="542.0" type="line" smooth="yes"/>
      <point x="1419.4333333333334" y="825.7226666666668"/>
      <point x="1272.0166666666667" y="1023.1666666666666"/>
      <point x="987.2666666666667" y="1023.1666666666666" type="curve" smooth="yes"/>
      <point x="702.5166666666667" y="1023.1666666666666"/>
      <point x="555.1" y="825.7226666666668"/>
    </contour>
  </outline>
</glyph>
<glyph name="ya" format="2">
  <advance width="1007"/>
  <unicode hex="044F"/>
  <outline>
    <contour>
      <point x="152.83333333333334" y="0.0" type="line"/>
      <point x="77.83333333333333" y="0.0" type="line"/>
      <point x="389.5" y="454.0" type="line"/>
      <point x="445.5" y="437.0" type="line"/>
    </contour>
    <contour>
      <point x="804.5" y="0.0" type="line"/>
      <point x="804.5" y="406.93333333333334" type="line"/>
      <point x="418.6" y="406.93333333333334" type="line"/>
      <point x="406.3333333333333" y="407.46666666666664" type="line"/>
      <point x="205.33333333333331" y="430.5146666666667"/>
      <point x="94.63333333333333" y="549.6933333333333"/>
      <point x="94.63333333333333" y="727.4666666666667" type="curve" smooth="yes"/>
      <point x="94.63333333333333" y="922.8833333333332"/>
      <point x="233.28333333333327" y="1052.0"/>
      <point x="482.3" y="1052.0" type="curve" smooth="yes"/>
      <point x="858.6333333333333" y="1052.0" type="line"/>
      <point x="858.6333333333333" y="0.0" type="line"/>
    </contour>
    <contour>
      <point x="482.3" y="463.06666666666666" type="curve" smooth="yes"/>
      <point x="804.5" y="463.06666666666666" type="line"/>
      <point x="804.5" y="995.8666666666667" type="line"/>
      <point x="482.3" y="995.8666666666667" type="line" smooth="yes"/>
      <point x="244.09266666666662" y="995.8666666666667"/>
      <point x="154.5" y="884.4939198542588"/>
      <point x="154.5" y="727.4666666666667" type="curve" smooth="yes"/>
      <point x="154.5" y="571.7988417132312"/>
      <point x="244.67333333333335" y="463.06666666666666"/>
    </contour>
  </outline>
</glyph>
<glyph name="ieukran" format="2">
  <advance width="1015"/>
  <unicode hex="0454"/>
  <guideline x="180.0" y="548.0" angle="90.0" identifier="n4jm0tBg3Y"/>
  <outline>
    <contour>
      <point x="85.0" y="510.0" type="curve" smooth="yes"/>
      <point x="85.0" y="542.0" type="line" smooth="yes"/>
      <point x="85.0" y="860.9200000000001"/>
      <point x="265.9026666666666" y="1082.0"/>
      <point x="562.4" y="1082.0" type="curve" smooth="yes"/>
      <point x="838.038" y="1082.0"/>
      <point x="973.2" y="913.5793333333334"/>
      <point x="973.2" y="727.9" type="curve" smooth="yes"/>
      <point x="973.2" y="722.9" type="line"/>
      <point x="920.7666666666667" y="722.9" type="line"/>
      <point x="920.7666666666667" y="727.9" type="line" smooth="yes"/>
      <point x="920.7666666666667" y="897.4993333333334"/>
      <point x="813.4266666666667" y="1024.6"/>
      <point x="562.4" y="1024.6" type="curve" smooth="yes"/>
      <point x="274.2106666666666" y="1024.6"/>
      <point x="138.83333333333334" y="828.964"/>
      <point x="138.83333333333334" y="532.4666666666667" type="curve" smooth="yes"/>
      <point x="138.83333333333334" y="514.3333333333334" type="line" smooth="yes"/>
      <point x="138.83333333333334" y="222.88333333333327"/>
      <point x="279.97266666666667" y="27.400000000000006"/>
      <point x="562.4" y="27.400000000000006" type="curve" smooth="yes"/>
      <point x="813.4266666666667" y="27.400000000000006"/>
      <point x="920.7666666666667" y="154.50066666666666"/>
      <point x="920.7666666666667" y="324.1" type="curve" smooth="yes"/>
      <point x="920.7666666666667" y="329.1" type="line"/>
      <point x="973.2" y="329.1" type="line"/>
      <point x="973.2" y="324.1" type="line" smooth="yes"/>
      <point x="973.2" y="138.42066666666665"/>
      <point x="838.038" y="-30.0"/>
      <point x="562.4" y="-30.0" type="curve" smooth="yes"/>
      <point x="265.9026666666666" y="-30.0"/>
      <point x="85.0" y="191.07999999999998"/>
    </contour>
    <contour>
      <point x="112.2" y="562.7" type="line"/>
      <point x="682.7666666666667" y="562.7" type="line"/>
      <point x="682.7666666666667" y="506.56666666666666" type="line"/>
      <point x="112.2" y="506.56666666666666" type="line"/>
    </contour>
  </outline>
</glyph>
<glyph name="cheverticalstroke-cy" format="2">
  <advance width="1018"/>
  <unicode hex="04B9"/>
  <outline>
    <contour>
      <point x="815.4" y="0.0" type="line"/>
      <point x="815.4" y="1052.0" type="line"/>
      <point x="869.5333333333333" y="1052.0" type="line"/>
      <point x="869.5333333333333" y="0.0" type="line"/>
    </contour>
    <contour>
      <point x="179.13333333333333" y="773.0" type="line" smooth="yes"/>
      <point x="179.13333333333333" y="528.3159999999999"/>
      <point x="283.38399999999996" y="451.7"/>
      <point x="494.3" y="451.7" type="curve" smooth="yes"/>
      <point x="663.4973333333335" y="451.7"/>
      <point x="735.134" y="466.3786666666666"/>
      <point x="851.1333333333333" y="499.7" type="curve"/>
      <point x="851.1333333333333" y="444.0" type="line"/>
      <point x="739.1540000000001" y="414.69866666666667"/>
      <point x="656.3660000000001" y="396.0"/>
      <point x="511.3333333333333" y="396.0" type="curve" smooth="yes"/>
      <point x="229.48666666666668" y="396.0"/>
      <point x="125.0" y="518.4"/>
      <point x="125.0" y="773.0" type="curve" smooth="yes"/>
      <point x="125.0" y="1052.0" type="line"/>
      <point x="179.13333333333333" y="1052.0" type="line"/>
    </contour>
    <contour>
      <point x="516.3333333333334" y="751.6666666666666" type="line"/>
      <point x="516.3333333333334" y="157.0" type="line"/>
      <point x="480.3333333333333" y="157.0" type="line"/>
      <point x="480.3333333333333" y="751.6666666666666" type="line"/>
    </contour>
  </outline>
</glyph>
<glyph name="Schwacyr" format="2">
  <advance width="1330"/>
  <unicode hex="04D8"/>
  <guideline x="-228.70000000000005" y="778.6333333333333" angle="90.0" identifier="UtNSclIhRG"/>
  <guideline x="1696.9333333333334" y="764.2333333333333" angle="90.0" identifier="hwb5F7EShy"/>
  <outline>
    <contour>
      <point x="143.2" y="696.8333333333334" type="line"/>
      <point x="1186.0" y="696.8333333333334" type="line"/>
      <point x="1186.0" y="639.1666666666666" type="line"/>
      <point x="143.2" y="639.1666666666666" type="line"/>
    </contour>
    <contour>
      <point x="1158.2333333333333" y="742.5333333333333" type="line" smooth="yes"/>
      <point x="1158.2333333333333" y="1199.4733333333334"/>
      <point x="948.9893333333333" y="1428.0666666666666"/>
      <point x="645.1666666666666" y="1428.0666666666666" type="curve" smooth="yes"/>
      <point x="341.56733333333335" y="1428.0666666666666"/>
      <point x="193.35866666666666" y="1290.4360000000001"/>
      <point x="206.13333333333333" y="1026.3666666666666" type="curve" smooth="yes"/>
      <point x="207.0" y="1017.2333333333333" type="line"/>
      <point x="151.16666666666666" y="1017.2333333333333" type="line"/>
      <point x="150.73333333333332" y="1027.2333333333333" type="line" smooth="yes"/>
      <point x="139.12" y="1304.8366666666668"/>
      <point x="327.36333333333334" y="1486.0"/>
      <point x="645.1666666666666" y="1486.0" type="curve" smooth="yes"/>
      <point x="972.6179999999999" y="1486.0"/>
      <point x="1214.6333333333332" y="1247.8653333333332"/>
      <point x="1214.6333333333332" y="743.4" type="curve" smooth="yes"/>
      <point x="1214.6333333333332" y="692.6666666666666" type="line" smooth="yes"/>
      <point x="1214.6333333333332" y="224.29199999999997"/>
      <point x="993.874" y="-30.0"/>
      <point x="664.1" y="-30.0" type="curve" smooth="yes"/>
      <point x="336.24666666666667" y="-30.0"/>
      <point x="115.0" y="230.012"/>
      <point x="115.0" y="710.0" type="curve" smooth="yes"/>
      <point x="115.0" y="696.8333333333334" type="line"/>
      <point x="171.4" y="696.8333333333334" type="line"/>
      <point x="171.4" y="724.3" type="line" smooth="yes"/>
      <point x="171.4" y="243.32933333333335"/>
      <point x="382.7" y="27.933333333333337"/>
      <point x="664.1" y="27.933333333333337" type="curve" smooth="yes"/>
      <point x="947.4206666666666" y="27.933333333333337"/>
      <point x="1158.2333333333333" y="235.2866666666667"/>
      <point x="1158.2333333333333" y="706.9666666666667" type="curve" smooth="yes"/>
    </contour>
  </outline>
</glyph>
<glyph name="Obarcyr" format="2">
  <advance width="1407"/>
  <unicode hex="04E8"/>
  <guideline x="212.0" y="786.0" angle="90.0" identifier="UtNSclIhRG"/>
  <guideline x="1248.0" y="730.0" angle="90.0" identifier="hwb5F7EShy"/>
  <outline>
    <contour>
      <point x="143.2" y="779.8333333333334" type="line"/>
      <point x="1264.2" y="779.8333333333334" type="line"/>
      <point x="1264.2" y="722.1666666666666" type="line"/>
      <point x="143.2" y="722.1666666666666" type="line"/>
    </contour>
    <contour>
      <point x="115.0" y="703.5" type="curve" smooth="yes"/>
      <point x="115.0" y="752.5" type="line" smooth="yes"/>
      <point x="115.0" y="1235.3913333333333"/>
      <point x="354.41133333333335" y="1486.0"/>
      <point x="702.7666666666667" y="1486.0" type="curve" smooth="yes"/>
      <point x="1051.122" y="1486.0"/>
      <point x="1291.9666666666667" y="1235.3913333333333"/>
      <point x="1291.9666666666667" y="752.5" type="curve" smooth="yes"/>
      <point x="1291.9666666666667" y="703.5" type="line" smooth="yes"/>
      <point x="1291.9666666666667" y="220.60866666666664"/>
      <point x="1051.122" y="-30.0"/>
      <point x="702.7666666666667" y="-30.0" type="curve" smooth="yes"/>
      <point x="356.332" y="-30.0"/>
      <point x="115.0" y="220.60866666666664"/>
    </contour>
    <contour>
      <point x="171.4" y="703.5" type="line" smooth="yes"/>
      <point x="171.4" y="250.98199999999997"/>
      <point x="384.7846666666667" y="27.933333333333337"/>
      <point x="702.7666666666667" y="27.933333333333337" type="curve" smooth="yes"/>
      <point x="1022.6693333333334" y="27.933333333333337"/>
      <point x="1235.5666666666666" y="250.98199999999997"/>
      <point x="1235.5666666666666" y="703.5" type="curve" smooth="yes"/>
      <point x="1235.5666666666666" y="752.5" type="line" smooth="yes"/>
      <point x="1235.5666666666666" y="1205.018"/>
      <point x="1022.6693333333334" y="1428.0666666666666"/>
      <point x="702.7666666666667" y="1428.0666666666666" type="curve" smooth="yes"/>
      <point x="384.7846666666667" y="1428.0666666666666"/>
      <point x="171.4" y="1205.018"/>
      <point x="171.4" y="752.5" type="curve" smooth="yes"/>
    </contour>
  </outline>
</glyph>
<glyph name="quoteright" format="2">
  <advance width="410"/>
  <unicode hex="2019"/>
  <outline>
    <contour>
      <point x="257.8" y="1458.0" type="line"/>
      <point x="257.8" y="1340.0333333333333" type="line" smooth="yes"/>
      <point x="257.8" y="1219.4333333333334"/>
      <point x="222.34333333333336" y="1109.7453333333333"/>
      <point x="122.06666666666666" y="1022.4666666666667" type="curve"/>
      <point x="79.13333333333333" y="1051.0333333333333" type="line"/>
      <point x="155.558" y="1126.0286666666666"/>
      <point x="189.9" y="1228.4933333333333"/>
      <point x="189.9" y="1337.0333333333333" type="curve" smooth="yes"/>
      <point x="189.9" y="1458.0" type="line"/>
    </contour>
  </outline>
</glyph>
<glyph name="dagger" format="2">
  <advance width="1008"/>
  <unicode hex="2020"/>
  <outline>
    <contour>
      <point x="479.1" y="-274.0" type="curve"/>
      <point x="475.1" y="8.0" type="line"/>
      <point x="486.06666666666666" y="748.0" type="line"/>
      <point x="486.06666666666666" y="923.6666666666666" type="line"/>
      <point x="72.0" y="923.6666666666666" type="line"/>
      <point x="72.0" y="967.6666666666666" type="line"/>
      <point x="482.06666666666666" y="967.6666666666666" type="line"/>
      <point x="469.06666666666666" y="1508.0" type="line"/>
      <point x="532.5" y="1508.0" type="line"/>
      <point x="519.5" y="967.6666666666666" type="line"/>
      <point x="931.0" y="967.6666666666666" type="line"/>
      <point x="931.0" y="923.6666666666666" type="line"/>
      <point x="515.5" y="923.6666666666666" type="line"/>
      <point x="515.5" y="748.0" type="line"/>
      <point x="526.4666666666667" y="8.0" type="line"/>
      <point x="522.4666666666667" y="-274.0" type="line"/>
      <point x="507.23533333333336" y="-316.96933333333334"/>
      <point x="497.592" y="-316.38866666666667"/>
    </contour>
  </outline>
</glyph>
<glyph name="peseta" format="2">
  <advance width="1681"/>
  <unicode hex="20A7"/>
  <outline>
    <contour>
      <point x="579.4" y="620.9" type="curve"/>
      <point x="180.56666666666666" y="620.9" type="line"/>
      <point x="180.56666666666666" y="676.8666666666667" type="line"/>
      <point x="579.4" y="676.8666666666667" type="line"/>
      <point x="826.5073333333411" y="676.8666666666667"/>
      <point x="926.6333333333333" y="824.2493333333075"/>
      <point x="926.6333333333333" y="1040.5333333333333" type="curve"/>
      <point x="926.6333333333333" y="1254.0299999999677"/>
      <point x="826.5073333333411" y="1400.0333333333333"/>
      <point x="579.4" y="1400.0333333333333" type="curve"/>
      <point x="220.13333333333333" y="1400.0333333333333" type="line"/>
      <point x="220.13333333333333" y="0.0" type="line"/>
      <point x="171.3" y="0.0" type="line"/>
      <point x="171.3" y="1456.0" type="line"/>
      <point x="579.4" y="1456.0" type="line"/>
      <point x="839.7400000000156" y="1456.0"/>
      <point x="976.4666666666667" y="1287.8980000000026"/>
      <point x="976.4666666666667" y="1039.6666666666667" type="curve"/>
      <point x="976.4666666666667" y="789.9479999999832"/>
      <point x="839.7400000000156" y="620.9"/>
    </contour>
    <contour>
      <point x="1455.1" y="980.1333333333333" type="line"/>
      <point x="1455.1" y="928.4333333333334" type="line"/>
      <point x="947.1333333333333" y="928.4333333333334" type="line"/>
      <point x="947.1333333333333" y="980.1333333333333" type="line"/>
    </contour>
    <contour>
      <point x="1152.7333333333333" y="1297.7" type="line"/>
      <point x="1198.7" y="1297.7" type="line"/>
      <point x="1198.7" y="256.53333333333336" type="line"/>
      <point x="1198.7" y="93.35999999998057"/>
      <point x="1234.9453333333176" y="18.599999999999994"/>
      <point x="1346.3666666666666" y="18.599999999999994" type="curve" smooth="yes"/>
      <point x="1384.791333333341" y="18.599999999999994"/>
      <point x="1411.022" y="31.868000000000002"/>
      <point x="1426.7" y="38.3" type="curve"/>
      <point x="1426.7" y="-15.233333333333334" type="line"/>
      <point x="1412.8980000000001" y="-22.067333333333337"/>
      <point x="1384.9726666666381" y="-34.333333333333336"/>
      <point x="1338.2333333333333" y="-34.333333333333336" type="curve" smooth="yes"/>
      <point x="1215.1366666666238" y="-34.333333333333336"/>
      <point x="1152.7333333333333" y="62.033333333365675"/>
      <point x="1152.7333333333333" y="256.1" type="curve"/>
    </contour>
  </outline>
</glyph>
<glyph name="uni20B5" format="2">
  <advance width="1024"/>
  <unicode hex="20B5"/>
  <guideline x="0" y="-125.0" angle="0" identifier="1Am3eQoiKr"/>
  <outline>
    <contour>
      <point x="534.6333333333333" y="-190.0" type="line"/>
      <point x="534.6333333333333" y="37.0" type="line"/>
      <point x="530.4333333333334" y="51.0" type="line"/>
      <point x="530.4333333333334" y="708.0" type="line"/>
      <point x="588.0" y="708.0" type="line"/>
      <point x="588.0" y="50.0" type="line"/>
      <point x="584.2333333333333" y="40.0" type="line"/>
      <point x="584.2333333333333" y="-190.0" type="line"/>
    </contour>
    <contour>
      <point x="530.4333333333334" y="708.0" type="line"/>
      <point x="530.4333333333334" y="1448.0" type="line"/>
      <point x="533.3333333333334" y="1458.0" type="line"/>
      <point x="533.3333333333334" y="1582.0" type="line"/>
      <point x="587.2666666666667" y="1582.0" type="line"/>
      <point x="587.2666666666667" y="1458.0" type="line"/>
      <point x="588.0" y="1449.3" type="line"/>
      <point x="588.0" y="708.0" type="line"/>
    </contour>
    <contour>
      <point x="907.0" y="436.0" type="curve" smooth="yes"/>
      <point x="907.0" y="460.0" type="line"/>
      <point x="955.5333333333333" y="458.0" type="line"/>
      <point x="955.9666666666667" y="436.0" type="line" smooth="yes"/>
      <point x="965.8380000000001" y="176.79933333333332"/>
      <point x="851.76" y="-25.0"/>
      <point x="565.0" y="-25.0" type="curve" smooth="yes"/>
      <point x="268.85999999999996" y="-25.0"/>
      <point x="162.2" y="160.5"/>
      <point x="162.2" y="462.0" type="curve" smooth="yes"/>
      <point x="162.2" y="1002.0" type="line" smooth="yes"/>
      <point x="162.2" y="1288.76"/>
      <point x="269.53999999999996" y="1485.0"/>
      <point x="563.0" y="1485.0" type="curve" smooth="yes"/>
      <point x="853.78" y="1485.0"/>
      <point x="959.7593333333333" y="1306.04"/>
      <point x="954.5333333333333" y="1030.0" type="curve" smooth="yes"/>
      <point x="955.5333333333333" y="1008.0" type="line"/>
      <point x="909.1666666666666" y="1006.0" type="line"/>
      <point x="909.1666666666666" y="1030.0" type="line" smooth="yes"/>
      <point x="911.4893333333333" y="1312.8293333333334"/>
      <point x="773.164" y="1432.2"/>
      <point x="566.0" y="1432.2" type="curve" smooth="yes"/>
      <point x="345.972" y="1432.2"/>
      <point x="208.56666666666666" y="1286.07"/>
      <point x="208.56666666666666" y="1004.0" type="curve" smooth="yes"/>
      <point x="208.56666666666666" y="464.0" type="line" smooth="yes"/>
      <point x="208.56666666666666" y="178.312"/>
      <point x="347.2693333333333" y="33.133333333333326"/>
      <point x="579.0" y="33.133333333333326" type="curve" smooth="yes"/>
      <point x="790.8986666666667" y="33.133333333333326"/>
      <point x="907.0" y="160.40666666666664"/>
    </contour>
  </outline>
</glyph>
<glyph name="manat" format="2">
  <advance width="1130"/>
  <unicode hex="20BC"/>
  <outline>
    <contour>
      <point x="1033.3333333333333" y="916.0" type="curve" smooth="yes"/>
      <point x="1033.3333333333333" y="0.0" type="line"/>
      <point x="987.5" y="0.0" type="line"/>
      <point x="987.5" y="916.0" type="line" smooth="yes"/>
      <point x="988.6613333333333" y="1201.42"/>
      <point x="845.3726666666666" y="1366.6666666666667"/>
      <point x="565.0" y="1366.6666666666667" type="curve" smooth="yes"/>
      <point x="284.6273333333333" y="1366.6666666666667"/>
      <point x="142.5" y="1201.42"/>
      <point x="142.5" y="916.0" type="curve" smooth="yes"/>
      <point x="142.5" y="0.0" type="line"/>
      <point x="96.66666666666667" y="0.0" type="line"/>
      <point x="96.66666666666667" y="916.0" type="line" smooth="yes"/>
      <point x="94.92466666666668" y="1251.0"/>
      <point x="284.94" y="1416.0"/>
      <point x="565.0" y="1416.0" type="curve" smooth="yes"/>
      <point x="846.4000000000001" y="1416.0"/>
      <point x="1039.0953333333334" y="1251.0"/>
    </contour>
    <contour>
      <point x="590.5333333333333" y="0.0" type="line"/>
      <point x="539.4666666666667" y="0.0" type="line"/>
      <point x="539.4666666666667" y="1582.0" type="line"/>
      <point x="590.5333333333333" y="1582.0" type="line"/>
    </contour>
  </outline>
</glyph>
<glyph name="be.locl" format="2">
  <advance width="1151"/>
  <outline>
    <contour>
      <point x="140.26666666666665" y="550.6666666666666" type="curve" smooth="yes"/>
      <point x="140.26666666666665" y="518.6666666666666" type="line" smooth="yes"/>
      <point x="140.26666666666665" y="230.29866666666663"/>
      <point x="288.998" y="28.83333333333333"/>
      <point x="575.2666666666667" y="28.83333333333333" type="curve" smooth="yes"/>
      <point x="861.5353333333333" y="28.83333333333333"/>
      <point x="1010.2666666666667" y="230.29866666666663"/>
      <point x="1010.2666666666667" y="518.6666666666666" type="curve" smooth="yes"/>
      <point x="1010.2666666666667" y="550.6666666666666" type="line" smooth="yes"/>
      <point x="1010.2666666666667" y="843.0993333333333"/>
      <point x="859.7933333333334" y="1040.5"/>
      <point x="575.2666666666667" y="1040.5" type="curve" smooth="yes"/>
      <point x="288.998" y="1040.5"/>
      <point x="140.26666666666665" y="839.0346666666667"/>
    </contour>
    <contour>
      <point x="85.0" y="550.6666666666666" type="line" smooth="yes"/>
      <point x="85.0" y="789.678"/>
      <point x="168.6493333333333" y="975.7686666666666"/>
      <point x="428.9666666666667" y="1073.6333333333334" type="curve"/>
      <point x="428.9666666666667" y="1077.6333333333334" type="line"/>
      <point x="294.4188719287563" y="1093.616592241391"/>
      <point x="185.13333333333333" y="1160.3853333333334"/>
      <point x="185.13333333333333" y="1268.3" type="curve" smooth="yes"/>
      <point x="185.13333333333333" y="1417.7546666666667"/>
      <point x="290.77081494686547" y="1485.0"/>
      <point x="462.8333333333333" y="1485.0" type="curve" smooth="yes"/>
      <point x="677.3666666666667" y="1485.0" type="line" smooth="yes"/>
      <point x="819.4066666666668" y="1485.0"/>
      <point x="874.3066666666667" y="1491.78"/>
      <point x="886.3666666666667" y="1536.0" type="curve"/>
      <point x="947.6" y="1536.0" type="line"/>
      <point x="939.2026666666667" y="1461.9873333333333"/>
      <point x="872.902" y="1430.6666666666667"/>
      <point x="689.3666666666667" y="1430.6666666666667" type="curve" smooth="yes"/>
      <point x="464.8" y="1430.6666666666667" type="line" smooth="yes"/>
      <point x="302.1686666666667" y="1430.6666666666667"/>
      <point x="236.0" y="1386.8226666666665"/>
      <point x="236.0" y="1279.5333333333333" type="curve" smooth="yes"/>
      <point x="236.0" y="1145.9799999999998"/>
      <point x="420.22208813688127" y="1116.4603751075758"/>
      <point x="653.2666666666667" y="1088.1666666666667" type="curve" smooth="yes"/>
      <point x="872.8033333333334" y="1062.9746666666667"/>
      <point x="1065.5333333333333" y="878.9666666666667"/>
      <point x="1065.5333333333333" y="550.6666666666666" type="curve" smooth="yes"/>
      <point x="1065.5333333333333" y="518.6666666666666" type="line" smooth="yes"/>
      <point x="1065.5333333333333" y="194.5206666666666"/>
      <point x="874.2653333333333" y="-30.0"/>
      <point x="575.2666666666667" y="-30.0" type="curve" smooth="yes"/>
      <point x="276.268" y="-30.0"/>
      <point x="85.0" y="194.5206666666666"/>
      <point x="85.0" y="518.6666666666666" type="curve" smooth="yes"/>
    </contour>
  </outline>
</glyph>
<glyph name="dieresiscomb.case" format="2">
  <advance width="1024"/>
  <outline>
    <contour>
      <point x="213.3" y="1742.5666666666666" type="curve" smooth="yes"/>
      <point x="213.3" y="1787.4566666666667"/>
      <point x="237.6906666666667" y="1812.1333333333332"/>
      <point x="282.0" y="1812.1333333333332" type="curve" smooth="yes"/>
      <point x="324.21" y="1812.1333333333332"/>
      <point x="350.7" y="1784.0173333333335"/>
      <point x="350.7" y="1742.5666666666666" type="curve" smooth="yes"/>
      <point x="350.7" y="1699.0166666666667"/>
      <point x="327.64933333333335" y="1674.0"/>
      <point x="282.0" y="1674.0" type="curve" smooth="yes"/>
      <point x="239.79" y="1674.0"/>
      <point x="213.3" y="1701.1160000000002"/>
    </contour>
    <contour>
      <point x="673.3" y="1742.5666666666666" type="curve" smooth="yes"/>
      <point x="673.3" y="1787.4566666666667"/>
      <point x="697.6906666666666" y="1812.1333333333332"/>
      <point x="742.0" y="1812.1333333333332" type="curve" smooth="yes"/>
      <point x="784.21" y="1812.1333333333332"/>
      <point x="810.7" y="1784.0173333333335"/>
      <point x="810.7" y="1742.5666666666666" type="curve" smooth="yes"/>
      <point x="810.7" y="1699.0166666666667"/>
      <point x="787.6493333333334" y="1674.0"/>
      <point x="742.0" y="1674.0" type="curve" smooth="yes"/>
      <point x="699.79" y="1674.0"/>
      <point x="673.3" y="1701.1160000000002"/>
    </contour>
  </outline>
</glyph>
<glyph name="engtail" format="2">
  <advance width="629"/>
  <outline>
    <contour>
      <point x="439.1190476190476" y="75.33333333333333" type="line"/>
      <point x="494.76666666666665" y="75.33333333333333" type="line"/>
      <point x="494.76666666666665" y="-15.833333333333343" type="line" smooth="yes"/>
      <point x="494.76666666666665" y="-303.4866666666667"/>
      <point x="413.22866666666664" y="-404.3"/>
      <point x="269.0" y="-404.3" type="curve" smooth="yes"/>
      <point x="249.3466666666667" y="-404.3"/>
      <point x="209.88666666666666" y="-405.4166666666667"/>
      <point x="194.7" y="-422.1666666666667" type="curve"/>
      <point x="167.4" y="-338.56666666666666" type="line"/>
      <point x="177.584" y="-326.2833333333333"/>
      <point x="261.6622502334576" y="-335.03333333333336"/>
      <point x="287.7922502334576" y="-335.03333333333336" type="curve" smooth="yes"/>
      <point x="410.13425023345764" y="-335.03333333333336"/>
      <point x="443.48571428571427" y="-254.7386666666667"/>
      <point x="443.48571428571427" y="-86.16666666666667" type="curve" smooth="yes"/>
      <point x="443.48571428571427" y="-20.155714285714282"/>
      <point x="443.48571428571427" y="35.00666666666667"/>
      <point x="443.48571428571427" y="78.33333333333333" type="curve"/>
    </contour>
  </outline>
</glyph>
<glyph name="five.prop" format="2">
  <advance width="1072"/>
  <outline>
    <contour>
      <point x="112.46666666666667" y="360.7" type="curve" smooth="yes"/>
      <point x="112.46666666666667" y="375.0" type="line"/>
      <point x="157.43333333333334" y="375.0" type="line"/>
      <point x="157.43333333333334" y="365.0" type="line" smooth="yes"/>
      <point x="157.43333333333334" y="152.2973333333333"/>
      <point x="313.8673333333333" y="23.36666666666666"/>
      <point x="543.7666666666667" y="23.36666666666666" type="curve" smooth="yes"/>
      <point x="771.7453333333333" y="23.36666666666666"/>
      <point x="910.0" y="183.37666666666667"/>
      <point x="910.0" y="465.0" type="curve" smooth="yes"/>
      <point x="910.0" y="717.8133333333333"/>
      <point x="771.7453333333333" y="851.7666666666667"/>
      <point x="543.7666666666667" y="851.7666666666667" type="curve" smooth="yes"/>
      <point x="436.61133333333333" y="853.6873333333334"/>
      <point x="270.606" y="763.7080000000001"/>
      <point x="211.33333333333334" y="679.4666666666667" type="curve"/>
      <point x="161.03333333333333" y="705.6333333333333" type="line"/>
      <point x="237.9" y="1456.0" type="line"/>
      <point x="892.1333333333333" y="1456.0" type="line"/>
      <point x="892.1333333333333" y="1403.5333333333333" type="line"/>
      <point x="277.8" y="1403.5333333333333" type="line"/>
      <point x="202.26666666666665" y="716.9" type="line"/>
      <point x="251.98066666666668" y="810.8786666666666"/>
      <point x="419.61066666666665" y="904.7"/>
      <point x="553.7" y="904.7" type="curve" smooth="yes"/>
      <point x="792.9346666666667" y="904.7"/>
      <point x="956.6666666666666" y="744.3900000000001"/>
      <point x="956.6666666666666" y="465.0" type="curve" smooth="yes"/>
      <point x="956.6666666666666" y="156.79999999999995"/>
      <point x="796.3566666666667" y="-30.0"/>
      <point x="543.7666666666667" y="-30.0" type="curve" smooth="yes"/>
      <point x="289.256" y="-30.0"/>
      <point x="112.46666666666667" y="106.01066666666665"/>
    </contour>
  </outline>
</glyph>
<glyph name="ghe.bgr" format="2">
  <advance width="970"/>
  <outline>
    <contour>
      <point x="889.8666666666667" y="311.43333333333334" type="line"/>
      <point x="835.7333333333333" y="311.43333333333334" type="line"/>
      <point x="835.7333333333333" y="306.43333333333334" type="line" smooth="yes"/>
      <point x="835.7333333333333" y="115.34933333333333"/>
      <point x="692.636" y="27.400000000000006"/>
      <point x="479.93333333333334" y="27.400000000000006" type="curve" smooth="yes"/>
      <point x="262.98733333333325" y="27.400000000000006"/>
      <point x="141.16666666666669" y="117.55799999999996"/>
      <point x="141.16666666666669" y="262.23333333333335" type="curve" smooth="yes"/>
      <point x="141.16666666666669" y="411.3306666666667"/>
      <point x="223.11907974767703" y="469.4666854308021"/>
      <point x="477.6666666666667" y="523.0333333333333" type="curve" smooth="yes"/>
      <point x="730.4516470978922" y="576.6371718661604"/>
      <point x="834.7666666666667" y="669.0899999999999"/>
      <point x="834.7666666666667" y="807.3333333333334" type="curve" smooth="yes"/>
      <point x="834.7666666666667" y="948.5246666666667"/>
      <point x="726.1926666666668" y="1082.0"/>
      <point x="464.1333333333333" y="1082.0" type="curve" smooth="yes"/>
      <point x="238.2986666666667" y="1082.0"/>
      <point x="91.36666666666667" y="947.74"/>
      <point x="91.36666666666667" y="752.1" type="curve" smooth="yes"/>
      <point x="91.36666666666667" y="747.1" type="line"/>
      <point x="145.93333333333334" y="747.1" type="line"/>
      <point x="145.93333333333334" y="744.6333333333333" type="line" smooth="yes"/>
      <point x="145.93333333333334" y="923.8806666666667"/>
      <point x="261.034" y="1024.6"/>
      <point x="464.1333333333333" y="1024.6" type="curve" smooth="yes"/>
      <point x="706.2266666666667" y="1024.6"/>
      <point x="774.0333333333333" y="934.234"/>
      <point x="774.0333333333333" y="813.5" type="curve" smooth="yes"/>
      <point x="774.0333333333333" y="698.3493333333333"/>
      <point x="706.737465271692" y="620.8376781031398"/>
      <point x="457.93333333333334" y="567.2666666666667" type="curve" smooth="yes"/>
      <point x="203.21314248717795" y="511.7387394087443"/>
      <point x="80.0" y="435.08628571431063"/>
      <point x="80.0" y="273.53333333333336" type="curve" smooth="yes"/>
      <point x="80.0" y="71.39877181915676"/>
      <point x="234.26666666666668" y="-30.0"/>
      <point x="479.93333333333334" y="-30.0" type="curve" smooth="yes"/>
      <point x="747.8886666666667" y="-30.0"/>
      <point x="889.8666666666667" y="98.91199999999998"/>
      <point x="889.8666666666667" y="306.43333333333334" type="curve" smooth="yes"/>
    </contour>
  </outline>
</glyph>
<glyph name="hard.bgr" format="2">
  <advance width="1190"/>
  <outline>
    <contour>
      <point x="335.76666666666665" y="318.0333333333333" type="curve" smooth="yes"/>
      <point x="335.76666666666665" y="995.8666666666667" type="line"/>
      <point x="58.66666666666667" y="995.8666666666667" type="line"/>
      <point x="58.66666666666667" y="1052.0" type="line"/>
      <point x="389.9" y="1052.0" type="line"/>
      <point x="389.9" y="666.4" type="line"/>
      <point x="714.9333333333333" y="666.4" type="line" smooth="yes"/>
      <point x="961.9846666666666" y="666.4"/>
      <point x="1101.1" y="530.4680000000001"/>
      <point x="1101.1" y="318.0333333333333" type="curve" smooth="yes"/>
      <point x="1101.1" y="107.92133333333331"/>
      <point x="964.8446666666666" y="-30.0"/>
      <point x="723.6" y="-30.0" type="curve" smooth="yes"/>
      <point x="475.43199999999996" y="-30.0"/>
      <point x="335.76666666666665" y="107.92133333333331"/>
    </contour>
    <contour>
      <point x="389.9" y="318.0333333333333" type="line" smooth="yes"/>
      <point x="389.9" y="146.96"/>
      <point x="480.30066666666664" y="22.66666666666667"/>
      <point x="723.6" y="22.66666666666667" type="curve" smooth="yes"/>
      <point x="954.214" y="22.66666666666667"/>
      <point x="1041.2333333333333" y="145.03933333333333"/>
      <point x="1041.2333333333333" y="318.0333333333333" type="curve" smooth="yes"/>
      <point x="1041.2333333333333" y="490.5719003115373"/>
      <point x="951.9346666666667" y="610.2666666666667"/>
      <point x="714.9333333333333" y="610.2666666666667" type="curve" smooth="yes"/>
      <point x="389.9" y="610.2666666666667" type="line"/>
    </contour>
  </outline>
</glyph>
<glyph name="horncomb.case" format="2">
  <advance width="1024"/>
  <outline>
    <contour>
      <point x="382.0" y="1497.4967320261999" type="line"/>
      <point x="455.0" y="1497.4967320261999" type="line" smooth="yes"/>
      <point x="598.9606666666667" y="1497.4967320261999"/>
      <point x="643.1666666666666" y="1513.8467320262"/>
      <point x="643.1666666666666" y="1599.8300653595334" type="curve" smooth="yes"/>
      <point x="643.1666666666666" y="1654.7700653595334"/>
      <point x="635.2266666666666" y="1701.5900653595334"/>
      <point x="623.1666666666666" y="1749.8300653595334" type="curve"/>
      <point x="673.9732026144101" y="1749.8300653595334" type="line"/>
      <point x="692.9118692810767" y="1706.3693986928665"/>
      <point x="714.9398692810768" y="1660.4233986928666"/>
      <point x="714.9398692810768" y="1581.3633986928667" type="curve" smooth="yes"/>
      <point x="714.9398692810768" y="1509.5393986928668"/>
      <point x="650.9573333333333" y="1447.2921568627366"/>
      <point x="530.0" y="1447.2921568627366" type="curve" smooth="yes"/>
      <point x="468.36" y="1447.2921568627366"/>
      <point x="416.84000000000003" y="1449.072588235278"/>
      <point x="382.0" y="1455.32679738559" type="curve"/>
    </contour>
  </outline>
</glyph>
<glyph name="soft.bgr" format="2">
  <advance width="1002"/>
  <outline>
    <contour>
      <point x="148.0" y="318.0333333333333" type="curve" smooth="yes"/>
      <point x="148.0" y="1052.0" type="line"/>
      <point x="202.13333333333333" y="1052.0" type="line"/>
      <point x="202.13333333333333" y="666.4" type="line"/>
      <point x="527.1666666666666" y="666.4" type="line" smooth="yes"/>
      <point x="774.218" y="666.4"/>
      <point x="913.3333333333334" y="530.4680000000001"/>
      <point x="913.3333333333334" y="318.0333333333333" type="curve" smooth="yes"/>
      <point x="913.3333333333334" y="107.92133333333331"/>
      <point x="777.078" y="-30.0"/>
      <point x="535.8333333333334" y="-30.0" type="curve" smooth="yes"/>
      <point x="287.6653333333333" y="-30.0"/>
      <point x="148.0" y="107.92133333333331"/>
    </contour>
    <contour>
      <point x="202.13333333333333" y="318.0333333333333" type="line" smooth="yes"/>
      <point x="202.13333333333333" y="146.96"/>
      <point x="292.534" y="22.66666666666667"/>
      <point x="535.8333333333334" y="22.66666666666667" type="curve" smooth="yes"/>
      <point x="766.4473333333333" y="22.66666666666667"/>
      <point x="853.4666666666667" y="145.03933333333333"/>
      <point x="853.4666666666667" y="318.0333333333333" type="curve" smooth="yes"/>
      <point x="853.4666666666667" y="490.5719003115373"/>
      <point x="764.168" y="610.2666666666667"/>
      <point x="527.1666666666666" y="610.2666666666667" type="curve" smooth="yes"/>
      <point x="202.13333333333333" y="610.2666666666667" type="line"/>
    </contour>
  </outline>
</glyph>
<glyph name="yu.bgr" format="2">
  <advance width="1568"/>
  <outline>
    <contour>
      <point x="507.8333333333333" y="510.0" type="curve" smooth="yes"/>
      <point x="507.8333333333333" y="542.0" type="line" smooth="yes"/>
      <point x="507.8333333333333" y="860.9200000000001"/>
      <point x="697.7866666666666" y="1082.0"/>
      <point x="995.2666666666667" y="1082.0" type="curve" smooth="yes"/>
      <point x="1292.7466666666667" y="1082.0"/>
      <point x="1482.7" y="860.9200000000001"/>
      <point x="1482.7" y="542.0" type="curve" smooth="yes"/>
      <point x="1482.7" y="510.0" type="line" smooth="yes"/>
      <point x="1482.7" y="191.07999999999998"/>
      <point x="1292.7466666666667" y="-30.0"/>
      <point x="995.2666666666667" y="-30.0" type="curve" smooth="yes"/>
      <point x="697.7866666666666" y="-30.0"/>
      <point x="507.8333333333333" y="191.07999999999998"/>
    </contour>
    <contour>
      <point x="563.1" y="542.0" type="curve" smooth="yes"/>
      <point x="563.1" y="510.0" type="line" smooth="yes"/>
      <point x="563.1" y="226.27733333333327"/>
      <point x="710.5166666666667" y="28.83333333333333"/>
      <point x="995.2666666666667" y="28.83333333333333" type="curve" smooth="yes"/>
      <point x="1280.0166666666667" y="28.83333333333333"/>
      <point x="1427.4333333333334" y="226.27733333333327"/>
      <point x="1427.4333333333334" y="510.0" type="curve" smooth="yes"/>
      <point x="1427.4333333333334" y="542.0" type="line" smooth="yes"/>
      <point x="1427.4333333333334" y="825.7226666666668"/>
      <point x="1280.0166666666667" y="1023.1666666666666"/>
      <point x="995.2666666666667" y="1023.1666666666666" type="curve" smooth="yes"/>
      <point x="710.5166666666667" y="1023.1666666666666"/>
      <point x="563.1" y="825.7226666666668"/>
    </contour>
    <contour>
      <point x="156.0" y="1536.0" type="line"/>
      <point x="210.13333333333333" y="1536.0" type="line"/>
      <point x="210.13333333333333" y="562.7" type="line"/>
      <point x="533.3" y="562.7" type="line"/>
      <point x="533.3" y="506.56666666666666" type="line"/>
      <point x="210.13333333333333" y="506.56666666666666" type="line"/>
      <point x="210.13333333333333" y="0.0" type="line"/>
      <point x="156.0" y="0.0" type="line"/>
    </contour>
  </outline>
</glyph>
<glyph name="zero.prop" format="2">
  <advance width="1156"/>
  <outline>
    <contour>
      <point x="187.4" y="457.1333333333333" type="curve" smooth="yes"/>
      <point x="187.4" y="996.0" type="line" smooth="yes"/>
      <point x="187.4" y="1313.848"/>
      <point x="329.29599999999994" y="1486.0"/>
      <point x="578.0" y="1486.0" type="curve" smooth="yes"/>
      <point x="827.8653333333334" y="1486.0"/>
      <point x="968.6" y="1313.848"/>
      <point x="968.6" y="996.0" type="curve" smooth="yes"/>
      <point x="968.6" y="457.1333333333333" type="line" smooth="yes"/>
      <point x="968.6" y="139.2853333333333"/>
      <point x="827.8653333333334" y="-30.0"/>
      <point x="578.0" y="-30.0" type="curve" smooth="yes"/>
      <point x="329.29599999999994" y="-30.0"/>
      <point x="187.4" y="139.2853333333333"/>
    </contour>
    <contour>
      <point x="233.76666666666665" y="452.8666666666667" type="line" smooth="yes"/>
      <point x="233.76666666666665" y="188.44"/>
      <point x="357.7486666666666" y="23.36666666666666"/>
      <point x="578.0" y="23.36666666666666" type="curve" smooth="yes"/>
      <point x="798.2513333333334" y="23.36666666666666"/>
      <point x="922.2333333333333" y="188.44"/>
      <point x="922.2333333333333" y="452.8666666666667" type="curve" smooth="yes"/>
      <point x="922.2333333333333" y="995.9666666666667" type="line" smooth="yes"/>
      <point x="922.2333333333333" y="1258.4726666666666"/>
      <point x="800.1719999999999" y="1432.6333333333334"/>
      <point x="578.0" y="1432.6333333333334" type="curve" smooth="yes"/>
      <point x="355.828" y="1432.6333333333334"/>
      <point x="233.76666666666665" y="1258.4726666666666"/>
      <point x="233.76666666666665" y="995.9666666666667" type="curve" smooth="yes"/>
    </contour>
  </outline>
</glyph>
